<?xml version="1.0" encoding="UTF-8" standalone="no"?>
<svg
   xmlns:dc="http://purl.org/dc/elements/1.1/"
   xmlns:cc="http://creativecommons.org/ns#"
   xmlns:rdf="http://www.w3.org/1999/02/22-rdf-syntax-ns#"
   xmlns:svg="http://www.w3.org/2000/svg"
   xmlns="http://www.w3.org/2000/svg"
   xmlns:sodipodi="http://sodipodi.sourceforge.net/DTD/sodipodi-0.dtd"
   xmlns:inkscape="http://www.inkscape.org/namespaces/inkscape"
   width="1122.5197"
   height="793.70081"
   viewBox="0 0 297 210"
   version="1.1"
   id="svg8"
   inkscape:version="1.0.2-2 (e86c870879, 2021-01-15)"
   sodipodi:docname="logo definitivo grafox.svg">
  <defs
     id="defs2">
    <style
       id="style10">.cls-1{fill:#fc0606;}.cls-2{fill:#c10a74;}.cls-12,.cls-2,.cls-3,.cls-5,.cls-7,.cls-8,.cls-9{stroke:#000;}.cls-12,.cls-15,.cls-16,.cls-2,.cls-3,.cls-5,.cls-7,.cls-8,.cls-9{stroke-miterlimit:10;}.cls-12,.cls-2,.cls-3,.cls-5{stroke-width:3px;}.cls-15,.cls-16,.cls-3,.cls-6{fill:aqua;}.cls-4{fill:#c00d74;}.cls-5,.cls-8{fill:none;}.cls-7{stroke-width:2px;}.cls-10{fill:#ff0;}.cls-11{fill:#8c8925;}.cls-13{fill:red;}.cls-14{fill:#0000fe;}.cls-15,.cls-16{stroke:aqua;}.cls-15{stroke-width:0.5px;}.cls-16{stroke-width:0.25px;}</style>
  </defs>
  <sodipodi:namedview
     id="base"
     pagecolor="#ffffff"
     bordercolor="#666666"
     borderopacity="1.0"
     inkscape:pageopacity="0.0"
     inkscape:pageshadow="2"
     inkscape:zoom="0.35"
     inkscape:cx="122.85714"
     inkscape:cy="560"
     inkscape:document-units="mm"
     inkscape:current-layer="layer1"
     inkscape:document-rotation="0"
     showgrid="false"
     units="px"
     inkscape:window-width="1258"
     inkscape:window-height="728"
     inkscape:window-x="26"
     inkscape:window-y="0"
     inkscape:window-maximized="0" />
  <metadata
     id="metadata5">
    <rdf:RDF>
      <cc:Work
         rdf:about="">
        <dc:format>image/svg+xml</dc:format>
        <dc:type
           rdf:resource="http://purl.org/dc/dcmitype/StillImage" />
        <dc:title />
      </cc:Work>
    </rdf:RDF>
  </metadata>
  <g
     inkscape:label="Capa 1"
     inkscape:groupmode="layer"
     id="layer1">
    <g
       id="g320"
       transform="translate(223.7619,-167.06548)">
      <path
         class="cls-1"
         d="m -54.955732,314.95572 c -0.284569,0.61198 -0.792511,1.68294 -1.070961,2.29492 0.347298,0.0995 0.777212,-0.22643 1.10921,-0.36719 0.232551,-0.0994 0.436034,-0.25091 0.659406,-0.37177 a 1.118389,1.118389 0 0 1 0.723663,-0.153 0.76497195,0.76497195 0 0 0 0.03825,-0.62574 2.0134062,2.0134062 0 0 0 -0.322818,-0.5569 c -0.152995,-0.19737 -0.267741,-1.07097 -0.518651,-1.1291 -0.313639,-0.0719 -0.524771,0.7053 -0.618099,0.90878 z"
         id="path14-1"
         style="display:inline;mix-blend-mode:normal;fill:#fc0606;stroke-width:0.152994" />
      <path
         class="cls-2"
         d="m -97.705424,307.127 11.113512,-1.11227 q -2.019526,5.7786 -2.874764,10.20014 -1.326462,4.55158 -2.022586,7.40646 l -1.138278,4.48885 q -3.925836,0.59056 -10.52142,1.30045 a 8.9930102,8.9930102 0 0 1 0.0643,-1.00517 24.072137,24.072137 0 0 1 -7.06681,0.99293 q -8.28923,-0.0138 -12.92649,-6.05245 -4.2609,-5.59501 -4.2456,-14.51458 0,-1.91396 0.22643,-4.08189 1.08626,-9.54226 7.94194,-16.43925 7.01633,-7.02244 16.02769,-7.00714 13.627215,0.0245 19.263528,9.80082 l -11.880014,6.00197 q -2.409662,-5.21711 -8.156134,-5.22782 -5.87192,-0.009 -9.80388,3.97785 -3.71317,3.79273 -4.60207,10.07162 a 16.748296,16.748296 0 0 0 -0.2249,2.44791 q 0,4.71223 2.62385,8.07505 2.7539,3.55406 7.12189,3.56171 c 3.14098,0 5.89488,-1.24538 8.12094,-2.40966 l 2.873239,-8.97618 m -5.177329,7.60382"
         id="path16-4"
         style="display:inline;mix-blend-mode:normal;fill:#c10a74;stroke:#000000;stroke-width:0.458983px;stroke-miterlimit:10" />
      <path
         class="cls-2"
         d="m -78.882524,281.97472 c 4.313416,-0.64053 6.775096,-0.80067 9.915566,-0.79557 0.713979,0 1.519739,0.0434 2.417311,0.13005 2.490749,0.19277 3.914102,0.32078 4.270074,0.38401 1.504898,0.2685 2.970263,0.7244 4.36187,1.35706 3.513776,1.47181 5.268102,3.98704 5.263007,7.54569 -0.01724,0.64539 -0.092,1.28796 -0.223372,1.92008 -1.057696,5.58735 -4.643885,9.08735 -10.758565,10.5 3.907476,4.27772 7.155547,8.57534 9.744212,12.89284 l -8.671722,3.12414 c -2.483604,-5.07023 -5.803582,-10.03745 -9.959935,-14.90165 l -1.285152,-1.07096 -0.853709,2.6009 c -0.588524,1.88387 -1.642135,5.80767 -3.160864,11.77139 l -0.28151,0.0306 c -2.681482,0.51916 -5.770948,1.2464 -9.2684,2.1817 1.181117,-4.52047 2.592234,-9.18629 4.233355,-13.99746 1.009763,-3.03438 2.596824,-6.90463 4.761185,-11.61074 0.441644,-0.94142 1.071981,-2.21638 1.891011,-3.82486 -0.660936,0.1943 -2.126622,0.35801 -2.704941,0.54772 m 18.653076,0.92256 v 0 c 0,-1.34023 -0.887872,-2.33623 -2.663632,-2.98798 -0.523241,-0.21012 -1.37083,-0.31619 -2.542767,-0.31823 h -0.660936 c -1.046482,0.0398 -2.44944,0.30956 -4.208876,0.80934 l 1.788505,0.91796 c -0.709894,1.27433 -1.340919,2.59103 -1.889481,3.94267 -0.0408,0.102 -0.377391,1.0016 -1.009763,2.69882 l 2.167931,-0.0597 c 2.243923,-0.0581 4.139003,-0.37942 5.685271,-0.96386 2.220454,-0.87207 3.505331,-2.65504 3.333748,-4.03905 z"
         id="path18-3"
         sodipodi:nodetypes="ccccccccccccccccccccccccccccccccc"
         style="display:inline;mix-blend-mode:normal;fill:#c10a74;stroke:#000000;stroke-width:0.458983px;stroke-miterlimit:10" />
      <path
         class="cls-2"
         d="m -35.854382,307.42534 -7.62983,0.36413 q -2.362234,3.73153 -4.319032,9.72585 l -9.519311,2.33928 q 0.410025,-1.56972 3.719294,-8.25251 l 2.294915,-4.64338 q 3.245011,-6.55581 10.203196,-16.18528 a 108.12114,108.12114 0 0 1 7.521205,-9.40762 q 2.196999,-0.0566 6.499201,-0.2708 l 0.214192,3.2037 q 0.214193,3.64432 0.208073,7.00255 a 73.102249,73.102249 0 0 1 -0.994464,12.3084 q -0.348827,0.97304 -1.529944,8.19285 a 49.010223,49.010223 0 0 1 -0.982224,4.86522 l -9.517781,2.30716 q 1.023533,-3.23278 3.83251,-11.54955 z m 2.600904,-18.11301 q -1.289742,1.81758 -5.416001,8.72068 l -2.267377,3.82486 5.117663,-0.0841 1.161227,0.91796 q 1.447327,-3.16698 1.464156,-11.64746 a 15.01028,15.01028 0 0 0 -0.05355,-1.7319 z"
         id="path20-9"
         style="display:inline;mix-blend-mode:normal;fill:#c10a74;stroke:#000000;stroke-width:0.458983px;stroke-miterlimit:10" />
      <path
         class="cls-3"
         d="m -17.9112,318.57251 q -4.146148,0.43451 -9.422925,1.33411 v -0.0933 q 0,-0.34577 1.327992,-5.04882 1.578902,-5.4619 2.810507,-8.91345 2.080723,-5.77401 4.730586,-11.64135 1.006703,-2.19547 2.268907,-4.58065 -2.671282,0.27692 -4.993737,0.55537 l 2.242898,-7.53191 q 5.212519,-0.39932 12.4675127,-0.79404 4.3328011,-0.24326 14.0051065,-0.5416 L 5.183303,288.62539 H 2.294769 q -8.1331818,-0.0153 -12.718424,0.35342 l 1.5681928,0.91796 q -0.3778961,0.81699 -1.8604118,4.32974 -0.410025,0.91797 -0.917966,2.14193 l 10.83353245,-0.38861 -2.29338595,6.54204 -10.6774785,0.35801 q -0.566079,1.85123 -0.917966,2.887 a 68.201839,68.201839 0 0 0 -3.222062,12.80563 z"
         id="path22-3"
         style="display:inline;mix-blend-mode:normal;fill:#00ffff;stroke:#000000;stroke-width:0.458983px;stroke-miterlimit:10" />
      <path
         class="cls-3"
         d="m 37.029085,289.18382 -2.16487,1.43968 q 1.032712,3.01858 1.028122,5.18345 0,1.56972 -0.478872,4.3634 -1.529944,8.79258 -6.55581,13.96226 -5.507798,5.70822 -14.046415,5.6914 -6.9719543,-0.0138 -10.8886107,-4.85605 -3.60301792,-4.46437 -3.59077837,-11.59238 0,-1.5376 0.163704,-3.26643 0.91796637,-7.65737 6.71033397,-13.17588 5.9453621,-5.61183 13.5445931,-5.59806 11.512828,0.0214 16.278603,7.84861 z m -10.06856,11.88307 a 8.9746509,8.9746509 0 0 0 0.221841,-1.7273 q 0,-2.91914 -1.750255,-4.46132 l 1.540653,-0.87666 q -2.004226,-4.1798 -6.901577,-4.18898 -4.929479,0 -8.261697,3.1578 -3.1134358,3.04153 -3.8768778,8.0628 a 12.54554,12.54554 0 0 0 -0.191243,1.97822 q 0,3.76825 2.2168888,6.44107 2.319395,2.86099 6.024919,2.86864 4.426128,0 7.447767,-3.5051 2.704941,-3.10273 3.529581,-7.74917 z"
         id="path24-4"
         style="display:inline;mix-blend-mode:normal;fill:#00ffff;stroke:#000000;stroke-width:0.458983px;stroke-miterlimit:10" />
      <path
         class="cls-3"
         d="m 37.354963,323.14245 m -8.108702,-3.13638 q 8.091873,-10.72644 16.021572,-19.50373 c -0.152994,-0.56608 -0.292219,-0.84759 -0.437564,-0.84912 q 0,-2.22759 -3.180753,-12.56542 l -1.436617,-4.74283 9.234741,-2.05625 q 1.500875,3.64586 3.27714,12.09574 3.930426,-4.23488 9.972174,-10.31488 l 1.035772,-0.0918 q 2.827336,-0.33964 6.532861,-0.55384 -1.574313,1.88183 -4.185927,4.86063 l -11.766798,13.51247 q 2.115912,10.70961 2.105202,17.02369 l -9.517781,2.30715 a 9.8803777,9.8803777 0 0 0 0.09639,-1.56972 q 0,-3.17158 -0.488052,-8.66866 l -7.739986,8.77881"
         id="path26-9"
         style="display:inline;mix-blend-mode:normal;fill:#00ffff;stroke:#000000;stroke-width:0.458983px;stroke-miterlimit:10" />
      <polyline
         class="cls-4"
         points="865.5 937.5 840.5 940.35 840.48 950.16 864.5 948.5"
         id="polyline28-0"
         style="display:inline;mix-blend-mode:normal;fill:#c00d74"
         transform="matrix(0.15299439,0,0,0.15299439,-229.81608,163.69476)" />
      <polyline
         class="cls-5"
         points="865.5 937.5 840.5 940.35 840.48 950.16 864.5 948.5"
         id="polyline30-5"
         style="display:inline;mix-blend-mode:normal;fill:none;stroke:#000000;stroke-width:3px;stroke-miterlimit:10"
         transform="matrix(0.15299439,0,0,0.15299439,-229.81608,163.69476)" />
      <polyline
         class="cls-4"
         points="986.53 773.1 946.5 777.5 963.5 835.5 988.5 829.5"
         id="polyline32-0"
         style="display:inline;mix-blend-mode:normal;fill:#c00d74"
         transform="matrix(0.15299439,0,0,0.15299439,-229.81608,163.69476)" />
      <polyline
         class="cls-5"
         points="986.53 773.1 946.5 777.5 963.5 835.5 988.5 829.5"
         id="polyline34-9"
         style="display:inline;mix-blend-mode:normal;fill:none;stroke:#000000;stroke-width:3px;stroke-miterlimit:10"
         transform="matrix(0.15299439,0,0,0.15299439,-229.81608,163.69476)" />
      <polyline
         class="cls-6"
         points="1758.14 1003.61 1724.41 1063.8 1388.12 1071.62 1699.87 1014.15"
         id="polyline36-0"
         style="display:inline;mix-blend-mode:normal;fill:#00ffff"
         transform="matrix(0.15299439,0,0,0.15299439,-229.81608,163.69476)" />
      <polyline
         class="cls-5"
         points="1758.14 1003.61 1724.41 1063.8 1388.12 1071.62 1699.87 1014.15"
         id="polyline38-7"
         style="display:inline;mix-blend-mode:normal;fill:none;stroke:#000000;stroke-width:3px;stroke-miterlimit:10"
         transform="matrix(0.15299439,0,0,0.15299439,-229.81608,163.69476)" />
      <path
         class="cls-7"
         d="m -184.29107,252.73749 c 0,0 0.0887,-0.43297 0.2402,-1.25302 0.15147,-0.82005 0.36107,-2.02717 0.63034,-3.56936 0.26927,-1.54218 0.59209,-3.41483 1.02353,-5.5491 0.21113,-1.07097 0.45898,-2.197 0.74967,-3.38118 0.29069,-1.18418 0.62728,-2.41272 1.02048,-3.68105 0.39319,-1.26832 0.86747,-2.56265 1.41366,-3.87687 a 38.478089,38.478089 0 0 1 1.93844,-3.9595 39.931536,39.931536 0 0 1 5.69751,-7.75375 37.590722,37.590722 0 0 1 3.79427,-3.54182 38.378643,38.378643 0 0 1 4.45672,-3.09202 43.62941,43.62941 0 0 1 5.08248,-2.5443 48.464033,48.464033 0 0 1 5.60877,-1.93385 c 0,0 -0.37025,0 -1.09391,0.0306 -0.36107,0.0199 -0.80934,0.0536 -1.34482,0.0979 -0.53548,0.0444 -1.15358,0.12086 -1.8497,0.23714 a 32.315475,32.315475 0 0 0 -5.09319,1.23772 31.37303,31.37303 0 0 0 -6.50991,3.04765 32.310885,32.310885 0 0 0 -6.88474,5.79696 33.741383,33.741383 0 0 0 -5.78013,8.93028 34.09633,34.09633 0 0 0 -1.88795,5.57818 44.085333,44.085333 0 0 0 -1.03731,6.07847 c -0.43909,4.18439 -0.36259,8.5585 -0.17441,13.1009 z"
         id="path40-3"
         style="display:inline;mix-blend-mode:normal;stroke:#000000;stroke-width:0.305989px;stroke-miterlimit:10" />
      <path
         class="cls-8"
         d="m -184.33697,252.78186 0.1377,0.21114 0.0413,-0.30599"
         id="path42-3"
         style="display:inline;mix-blend-mode:normal;fill:none;stroke:#000000;stroke-width:0.152994;stroke-miterlimit:10" />
      <path
         class="cls-7"
         d="m -168.91207,356.10815 c 0,0 -0.28304,0.21573 -0.83688,0.63187 -0.28457,0.19583 -0.63493,0.44369 -1.06331,0.7206 l -0.70378,0.43145 c -0.25244,0.15299 -0.53242,0.29681 -0.82311,0.45898 -0.5875,0.3167 -1.25914,0.64258 -2.0134,0.96234 -0.18666,0.0857 -0.38402,0.15299 -0.58291,0.23561 l -0.61198,0.23714 -0.64717,0.21878 c -0.22031,0.075 -0.44368,0.153 -0.67776,0.21572 l -0.70684,0.20655 c -0.24173,0.0658 -0.49111,0.12239 -0.74202,0.18665 l -0.37942,0.0933 -0.39014,0.0811 c -0.26315,0.052 -0.52783,0.11322 -0.80016,0.153 a 29.335144,29.335144 0 0 1 -3.49133,0.42226 31.382209,31.382209 0 0 1 -12.61286,-1.89713 29.221928,29.221928 0 0 1 -4.49192,-2.12509 c -0.3733,-0.20654 -0.73284,-0.44674 -1.10003,-0.67624 -0.18512,-0.11168 -0.36259,-0.24173 -0.54466,-0.36412 -0.18206,-0.1224 -0.36412,-0.24785 -0.54313,-0.37637 l -0.53701,-0.39472 -0.26927,-0.1989 -0.26315,-0.2096 -0.53089,-0.4192 -0.51865,-0.4391 a 32.336894,32.336894 0 0 1 -3.93654,-4.00692 36.385126,36.385126 0 0 1 -5.98361,-10.52754 39.897877,39.897877 0 0 1 -0.18666,-27.03411 c 1.63092,-4.62961 4.19664,-9.10776 7.75529,-12.85153 a 33.481292,33.481292 0 0 1 2.84722,-2.65598 29.535567,29.535567 0 0 1 3.18382,-2.31175 29.864505,29.864505 0 0 1 7.27182,-3.29856 33.710784,33.710784 0 0 1 3.98703,-0.93632 c 0.33965,-0.052 0.67777,-0.11934 1.02048,-0.153 l 1.02812,-0.12851 1.03424,-0.0933 c 0.17289,-0.0168 0.34577,-0.0275 0.52018,-0.0337 l 0.52018,-0.0275 a 34.552253,34.552253 0 0 1 4.19052,0.0719 32.128822,32.128822 0 0 1 4.17981,0.64105 27.844979,27.844979 0 0 1 4.08036,1.22395 25.89889,25.89889 0 0 1 3.8524,1.87877 23.510648,23.510648 0 0 1 3.49439,2.53665 l 0.79557,0.73896 c 0.25856,0.25703 0.50641,0.52477 0.76497,0.78639 0.25856,0.26162 0.49264,0.5416 0.73284,0.81852 0.2402,0.27692 0.485,0.55384 0.70378,0.85065 a 29.411642,29.411642 0 0 1 2.49381,3.704 c 0.38401,0.64563 0.72672,1.32034 1.07096,1.98892 l 0.4957,1.02659 c 0.16982,0.33965 0.31364,0.69307 0.47275,1.04037 1.24079,2.7952 2.24596,5.73729 3.22206,8.7115 q 2.9069,8.94711 5.93772,18.05334 c 0,0 -1.10921,-4.58984 -3.32304,-13.19271 q -0.41462,-1.61409 -0.88125,-3.41637 c -0.30599,-1.201 -0.63952,-2.4678 -1.00823,-3.79579 -0.36872,-1.32799 -0.76498,-2.71412 -1.23926,-4.15379 -0.47428,-1.43968 -1.00823,-2.93291 -1.65693,-4.45826 a 37.942609,37.942609 0 0 0 -2.32857,-4.6342 28.995497,28.995497 0 0 0 -3.33834,-4.53016 24.436264,24.436264 0 0 0 -4.573,-3.96868 28.493675,28.493675 0 0 0 -5.69598,-2.93443 32.555676,32.555676 0 0 0 -6.52368,-1.69518 c -1.14134,-0.15299 -2.30257,-0.29375 -3.48216,-0.33965 a 35.18871,35.18871 0 0 0 -10.91462,1.18112 c -0.61197,0.15299 -1.22395,0.35801 -1.83593,0.54772 -0.30599,0.0995 -0.61198,0.21266 -0.91796,0.31976 l -0.45899,0.1637 -0.45898,0.18207 a 31.308772,31.308772 0 0 0 -3.57854,1.68293 33.26251,33.26251 0 0 0 -6.57876,4.7719 33.983114,33.983114 0 0 0 -2.89312,3.01705 35.415141,35.415141 0 0 0 -2.56878,3.39188 39.787721,39.787721 0 0 0 -2.20312,3.72083 40.62766,40.62766 0 0 0 -1.80074,4.00845 42.013789,42.013789 0 0 0 -0.97764,27.33857 40.491495,40.491495 0 0 0 3.99316,8.98077 35.953682,35.953682 0 0 0 6.37527,7.84249 33.305349,33.305349 0 0 0 4.0666,3.1884 l 0.26927,0.18207 0.27692,0.17288 0.5523,0.34424 c 0.37331,0.22643 0.76498,0.43909 1.13675,0.65634 0.37178,0.21726 0.77262,0.41156 1.16888,0.60127 l 0.59515,0.27998 0.30599,0.13923 0.30599,0.13004 a 31.516844,31.516844 0 0 0 5.0075,1.68294 32.223678,32.223678 0 0 0 5.26148,0.82311 30.326548,30.326548 0 0 0 10.70043,-1.08932 26.520048,26.520048 0 0 0 5.06258,-2.08378 23.343884,23.343884 0 0 0 4.49192,-3.22513 z"
         id="path44-6"
         style="display:inline;mix-blend-mode:normal;stroke:#000000;stroke-width:0.305989px;stroke-miterlimit:10" />
      <path
         class="cls-9"
         d="m -146.83651,210.0337 0.62268,-0.36566 0.76498,-0.45133 c 0.30599,-0.18512 0.66093,-0.3779 1.03883,-0.64258 0.76497,-0.51712 1.7273,-1.12756 2.78297,-1.95526 l 0.83229,-0.62728 c 0.27845,-0.22643 0.56149,-0.46816 0.85676,-0.71448 l 0.91032,-0.76498 c 0.153,-0.12851 0.30599,-0.27233 0.45898,-0.41461 l 0.46664,-0.43604 q 0.47428,-0.44062 0.97151,-0.90725 c 0.32282,-0.31976 0.64258,-0.65941 0.97458,-1.00059 l 0.50335,-0.52171 0.2555,-0.26468 c 0.0857,-0.0903 0.1637,-0.18512 0.24632,-0.27845 l 1.0067,-1.15204 c 0.16677,-0.1989 0.34883,-0.39014 0.511,-0.60127 l 0.49723,-0.63187 c 0.332,-0.42838 0.68236,-0.85524 1.01589,-1.3081 0.6441,-0.91797 1.34482,-1.85429 1.96751,-2.88548 l 0.48652,-0.76497 c 0.0796,-0.13004 0.16676,-0.25703 0.24173,-0.39166 0.075,-0.13464 0.15299,-0.26774 0.22796,-0.40391 0.30599,-0.54007 0.61198,-1.09085 0.92868,-1.64775 l 0.87053,-1.73954 0.22032,-0.44369 c 0.0734,-0.15299 0.13463,-0.30599 0.20195,-0.45898 q 0.19889,-0.45898 0.40237,-0.91797 a 47.821456,47.821456 0 0 0 2.65446,-8.06433 l -1.62174,-0.0719 c 0.43909,3.56018 0.80322,7.3116 0.69612,11.19307 -0.0275,0.96999 -0.0796,1.94762 -0.17747,2.92831 -0.0398,0.49112 -0.1071,0.9807 -0.16524,1.47487 -0.0352,0.24479 -0.0719,0.49111 -0.10862,0.73743 l -0.0566,0.37025 -0.0658,0.36872 a 35.647693,35.647693 0 0 1 -1.57431,5.8964 q -0.53242,1.45804 -1.19183,2.89312 c -0.44827,0.9501 -0.93173,1.89407 -1.46262,2.81969 -0.53089,0.92562 -1.11074,1.83593 -1.73343,2.71412 -0.15299,0.22184 -0.31823,0.43756 -0.47734,0.65788 -0.15912,0.22031 -0.32129,0.44521 -0.4804,0.6288 a 1.7854445,1.7854445 0 0 1 -0.50489,0.43604 1.2530241,1.2530241 0 0 1 -0.61197,0.13922 c -0.44522,-0.0107 -0.93327,-0.22643 -1.39684,-0.48652 -0.23408,-0.13005 -0.46664,-0.27539 -0.70225,-0.42379 -0.23561,-0.14841 -0.48805,-0.29375 -0.7359,-0.43298 a 13.881181,13.881181 0 0 0 -3.17463,-1.2469 14.165751,14.165751 0 0 0 -3.37965,-0.41615 13.506345,13.506345 0 0 0 -3.36588,0.44675 l 0.21267,-0.0321 0.26468,-0.0398 c 0.10556,-0.0168 0.22949,-0.0352 0.37024,-0.0459 l 0.47276,-0.0474 0.57831,-0.0291 c 0.20808,-0.0107 0.43451,0 0.67777,0 0.24326,0 0.50182,0.0214 0.77568,0.0337 a 14.358524,14.358524 0 0 1 1.82522,0.26315 14.075484,14.075484 0 0 1 2.1251,0.63187 12.869888,12.869888 0 0 1 2.29491,1.16123 l 0.57985,0.39319 c 0.20042,0.14229 0.4085,0.29069 0.63187,0.43604 a 7.1677872,7.1677872 0 0 0 0.72213,0.4192 3.4592032,3.4592032 0 0 0 0.88431,0.30599 2.2459576,2.2459576 0 0 0 1.07096,-0.0413 c 0.0872,-0.0306 0.17594,-0.0627 0.26468,-0.0979 a 2.2949159,2.2949159 0 0 0 0.25091,-0.1331 2.7431894,2.7431894 0 0 0 0.42533,-0.32741 6.7485825,6.7485825 0 0 0 0.64716,-0.71295 l 0.56608,-0.70225 a 35.511528,35.511528 0 0 0 2.18782,-3.15627 34.839882,34.839882 0 0 0 3.61373,-7.95571 36.801271,36.801271 0 0 0 1.58808,-9.97217 c 0.11781,-3.58313 -0.20195,-7.3575 -0.73437,-11.2711 l -0.62269,-4.56994 -0.9914,4.49956 a 50.400942,50.400942 0 0 1 -6.96737,16.55552 51.377046,51.377046 0 0 1 -6.22075,7.80272 49.847102,49.847102 0 0 1 -8.12094,6.76235 z"
         id="path46-7"
         style="display:inline;mix-blend-mode:normal;stroke:#000000;stroke-width:0.152994;stroke-miterlimit:10" />
      <path
         class="cls-7"
         d="m -160.78501,179.52356 c 0,0 0.0673,0.22949 0.2096,0.65329 0.14229,0.42379 0.35648,1.04036 0.63646,1.82063 0.56302,1.55901 1.40143,3.76213 2.37906,6.38598 0.48499,1.3127 1.00364,2.73248 1.51464,4.24713 0.26316,0.75579 0.50795,1.54065 0.76498,2.34081 0.25703,0.80016 0.49723,1.63092 0.73131,2.4831 0.47122,1.70283 0.91797,3.50051 1.26526,5.40835 0.17136,0.95469 0.33812,1.93844 0.45899,2.9528 0.12086,1.01435 0.21725,2.06236 0.27233,3.14862 0,0 0.0857,-0.179 0.23561,-0.53395 0.0734,-0.179 0.16982,-0.40085 0.26009,-0.67165 l 0.15299,-0.43756 0.0811,-0.24479 0.075,-0.26162 c 0.1025,-0.3626 0.21725,-0.76497 0.30599,-1.22396 0.0887,-0.45898 0.18359,-0.95468 0.26774,-1.49934 a 22.194896,22.194896 0 0 0 0.17135,-3.78661 24.749902,24.749902 0 0 0 -0.6334,-4.67551 c -0.0505,-0.2096 -0.10097,-0.42074 -0.15299,-0.63493 -0.052,-0.21419 -0.11628,-0.42379 -0.17441,-0.63951 -0.11475,-0.43298 -0.26163,-0.86442 -0.40085,-1.30811 -0.30599,-0.87512 -0.63952,-1.7732 -1.04495,-2.67434 a 35.327935,35.327935 0 0 0 -3.05989,-5.46343 46.227255,46.227255 0 0 0 -4.31597,-5.3854 z"
         id="path48-7"
         style="display:inline;mix-blend-mode:normal;stroke:#000000;stroke-width:0.305989px;stroke-miterlimit:10" />
      <path
         class="cls-10"
         d="m -185.22739,247.75906 a 1.3769495,1.3769495 0 0 1 0.56913,0.0811 0.927146,0.927146 0 0 1 0.42227,0.43298 2.7799081,2.7799081 0 0 1 0.19583,0.58291 5.0870635,5.0870635 0 0 1 0.17289,0.89042 5.2186386,5.2186386 0 0 1 -0.0352,0.8736 l -0.19125,1.95221 c -0.009,0.0841 -0.0428,0.19277 -0.12698,0.19124 -0.0842,-0.002 -0.10098,-0.0658 -0.12699,-0.12086 l -1.82828,-3.80497 c -0.16217,-0.33965 -0.40085,-0.70378 -0.50488,-1.07096 0.15299,-0.0841 0.52783,-0.0153 0.70989,-0.0138 z"
         id="path50-9"
         style="display:inline;mix-blend-mode:normal;fill:#ffff00;stroke-width:0.152994" />
      <path
         class="cls-10"
         d="m -185.58387,244.11779 a 5.0335154,5.0335154 0 0 1 1.4565,0.37637 0.59820806,0.59820806 0 0 1 0.29222,0.2402 0.6762352,0.6762352 0 0 1 0.0459,0.31823 l -0.0306,2.48004 c 0,0.3274 -0.0214,0.68694 -0.24632,0.91796 l -2.08837,-0.56914 a 1.0235325,1.0235325 0 0 1 -0.90114,-0.88889 l -0.71754,-2.25208 c -0.052,-0.16524 -0.3779,-0.86901 -0.21878,-0.97152 0.10709,-0.0688 0.39931,0.0337 0.51865,0.052 l 0.57526,0.0887 z"
         id="path52-5"
         style="display:inline;mix-blend-mode:normal;fill:#ffff00;stroke-width:0.152994" />
      <path
         class="cls-10"
         d="m -186.0964,244.83839 c -0.76498,-0.0964 -1.52995,-0.38095 -2.06849,-0.93173 -0.511,-0.52171 -0.77874,-1.22396 -0.99752,-1.9262 a 22.432037,22.432037 0 0 1 -1.01282,-5.85204 c -0.0505,-1.29586 0.009,-2.62079 -0.38402,-3.85545 l -0.0918,0.2402 c -0.22184,-0.22797 -0.10097,-0.63952 0.153,-0.82464 0.25397,-0.18513 0.59515,-0.20349 0.91796,-0.20808 a 23.330115,23.330115 0 0 1 5.33492,0.5156 c 0.58291,0.12392 1.20253,0.2968 1.58655,0.75426 0.34118,0.40543 0.42992,0.96386 0.45898,1.49322 0.10404,2.35306 -0.82464,4.61125 -1.31116,6.91535 -0.22643,1.07096 -0.23102,2.14192 -0.39472,3.21288 -0.12546,0.79557 -1.61715,0.54007 -2.19088,0.46663 z"
         id="path54-6"
         style="display:inline;mix-blend-mode:normal;fill:#ffff00;stroke-width:0.152994" />
      <path
         class="cls-10"
         d="m -180.62991,231.95015 c -0.61198,1.00517 -1.77474,1.56666 -2.93903,1.7273 -1.16428,0.16065 -2.34387,-0.026 -3.50357,-0.21266 -1.44885,-0.23255 -3.11955,-0.62575 -3.73306,-1.95833 -0.45898,-0.98834 -0.14382,-2.14192 0.17441,-3.18381 0.96387,-3.16545 1.95221,-6.38293 3.79732,-9.12918 1.08626,-1.61868 2.44791,-3.03234 3.79273,-4.43683 l 7.48296,-7.79048 c 1.37695,-1.43049 2.77991,-2.88547 4.53628,-3.80497 1.75638,-0.91949 3.95797,-1.22395 5.70822,-0.29375 1.25456,0.66706 2.1251,1.86501 2.92526,3.03847 0.76497,1.11839 1.54065,2.44791 1.17499,3.74683 -0.42226,1.50394 -2.10673,2.18476 -3.51887,2.83346 -4.38329,2.0027 -7.8991,5.52157 -10.7708,9.38927 a 51.2623,51.2623 0 0 0 -6.32785,11.24661"
         id="path56-0"
         style="display:inline;mix-blend-mode:normal;fill:#ffff00;stroke-width:0.152994" />
      <path
         class="cls-10"
         d="m -167.06849,198.31739 c 1.10615,-1.68294 2.21689,-3.36588 3.05989,-5.18039 0.96998,-2.09449 1.57278,-4.34351 1.98892,-6.61548 a 43.321891,43.321891 0 0 0 0.69154,-6.48543 l 0.49417,0.0536 c 2.78909,4.84074 5.60724,9.75033 7.06681,15.14644 0.96081,3.54641 1.31269,7.23511 1.3693,10.91003 0.0107,0.68848 -0.009,1.43662 -0.43756,1.97516 -0.39779,0.49876 -1.05107,0.69919 -1.66458,0.87207 l -5.20181,1.47639 c -1.10309,0.30599 -2.28268,0.62422 -3.37659,0.28304 -1.33411,-0.41767 -2.18782,-1.68293 -2.9329,-2.87017 -1.04036,-1.65081 -2.37753,-3.31998 -3.20064,-5.08706 -0.64105,-1.36318 1.41214,-3.372 2.14345,-4.47815 z"
         id="path58-4"
         style="display:inline;mix-blend-mode:normal;fill:#ffff00;stroke-width:0.152994" />
      <path
         class="cls-10"
         d="m -161.17515,179.2344 q 0.45899,0.75579 0.84912,1.54524 c 0.0291,0.0597 0.0566,0.13923 0.009,0.18666 -0.0474,0.0474 -0.11933,0.023 -0.17594,0 a 1.3677698,1.3677698 0 0 1 -0.5416,-0.485 2.0761339,2.0761339 0 0 1 -0.16218,-0.31822 0.84605898,0.84605898 0 0 1 -0.0107,-0.38708 z"
         id="path60-0"
         style="display:inline;mix-blend-mode:normal;fill:#ffff00;stroke-width:0.152994" />
      <path
         class="cls-10"
         d="m -153.0129,208.83881 a 0.68694481,0.68694481 0 0 0 0.34577,-0.17594 0.8016906,0.8016906 0 0 0 0.153,-0.5569 c 0,-0.1331 -0.008,-0.28916 -0.11934,-0.3626 a 0.37483626,0.37483626 0 0 0 -0.34118,0.0138 c -0.38401,0.153 -0.99293,0.52478 -1.11533,0.95316 -0.11933,0.39931 0.89961,0.17594 1.07708,0.12851 z"
         id="path62-0"
         style="display:inline;mix-blend-mode:normal;fill:#ffff00;stroke-width:0.152994" />
      <path
         class="cls-10"
         d="m -145.54218,209.94343 1.65387,-0.33658"
         id="path64-3"
         style="display:inline;mix-blend-mode:normal;fill:#ffff00;stroke-width:0.152994" />
      <path
         class="cls-10"
         d="m -124.84357,184.02924 c 0.22184,0.3473 0.24479,0.78181 0.25703,1.19336 0.153,4.68622 0.009,9.41375 -0.98528,13.99593 -0.99447,4.58218 -2.87783,9.03432 -5.91936,12.60368 -0.41308,0.48499 -0.89195,0.97916 -1.5177,1.09849 -0.90573,0.17289 -1.73343,-0.4804 -2.4831,-1.01741 a 13.188116,13.188116 0 0 0 -10.75856,-2.03941 c 4.79484,-2.9069 8.78493,-7.01174 12.05748,-11.56485 2.85182,-3.96867 5.18345,-8.28312 7.31008,-12.67711 0.29833,-0.61504 1.10309,-3.06907 2.03941,-1.59268 z"
         id="path66-4"
         style="display:inline;mix-blend-mode:normal;fill:#ffff00;stroke-width:0.152994" />
      <path
         class="cls-10"
         d="m -176.4853,360.44555 c 0.65023,-0.078 1.25303,-0.37025 1.83594,-0.65635 l 2.96656,-1.45039 c 0.18818,-0.0933 0.4039,-0.22184 0.4192,-0.43144 a 0.40696508,0.40696508 0 0 0 -0.29834,-0.38555 1.0174127,1.0174127 0 0 0 -0.52018,0 c -1.01435,0.20655 -1.9262,0.73897 -2.8717,1.15817 a 6.9734843,6.9734843 0 0 1 -1.40143,0.47581 c -0.35648,0.0734 -0.85524,0.0107 -1.1444,0.26774 -0.73743,0.67012 0.46663,1.09085 1.01435,1.02201 z"
         id="path68-9"
         style="display:inline;mix-blend-mode:normal;fill:#ffff00;stroke-width:0.152994" />
      <path
         class="cls-10"
         d="m -177.58686,359.51687 c -5.58735,0.0107 -11.47457,-0.0535 -16.31991,-2.82887 -4.56382,-2.61161 -7.54568,-7.2504 -10.16647,-11.80963 -0.48959,-0.85065 -1.09391,-1.7931 -2.06084,-1.95833 -1.04189,-0.17901 -1.96598,0.63034 -2.71259,1.37695 -1.02659,1.02506 -2.12509,2.22301 -2.0899,3.67186 0.0291,1.19795 0.83688,2.22301 1.65081,3.10273 a 33.438454,33.438454 0 0 0 32.89379,9.66312 1.6936479,1.6936479 0 0 0 -2.51064,-1.57278"
         id="path70-0"
         style="display:inline;mix-blend-mode:normal;fill:#ffff00;stroke-width:0.152994" />
      <path
         class="cls-10"
         d="m -203.98451,343.76916 c -0.76497,1.37695 -1.73189,2.6927 -3.09048,3.48215 -1.35859,0.78945 -3.1624,0.95162 -4.47203,0.0826 -1.34788,-0.89349 -1.86653,-2.5902 -2.29492,-4.15074 l -3.88758,-14.27591 c -0.11169,-0.40849 -0.20808,-0.89349 0.0673,-1.2163 0.2448,-0.2861 0.67165,-0.30599 1.04955,-0.30599 h 4.40623 c 0.82311,0 1.70283,0.0168 2.3806,0.48346 0.7359,0.50641 1.05566,1.42132 1.32952,2.2735 q 1.1138,3.45614 2.22454,6.91381 l 2.43873,7.57629"
         id="path72-8"
         style="display:inline;mix-blend-mode:normal;fill:#ffff00;stroke-width:0.152994" />
      <path
         class="cls-10"
         d="m -213.75167,328.32896 c -1.71201,-0.19736 -3.55253,-0.94244 -4.23182,-2.52593 -0.52477,-1.22396 -0.23103,-2.61774 0.0704,-3.91054 q 0.9042,-3.87841 1.80993,-7.75682 c 0.40237,-1.72271 0.8124,-3.46838 1.64775,-5.02739 0.59361,-1.10768 1.38766,-2.09297 2.17711,-3.07213 0.53701,-0.66552 1.10615,-1.35553 1.89101,-1.69212 0.93173,-0.40084 2.02411,-0.22796 2.95126,0.18513 2.55042,1.13827 4.05894,3.97785 4.1844,6.76847 0.12545,2.79062 -0.93633,5.5078 -2.37601,7.90828 -0.70683,1.17805 -1.52994,2.33316 -1.82522,3.67186 -0.35342,1.57432 0.23867,4.23183 -1.23313,5.37317 -0.52631,0.40849 -1.24538,0.28151 -1.86195,0.24326 -1.06178,-0.0643 -2.13274,-0.0413 -3.2037,-0.16524 z"
         id="path74-3"
         style="display:inline;mix-blend-mode:normal;fill:#ffff00;stroke-width:0.152994" />
      <path
         class="cls-10"
         d="m -199.84907,310.04154 c -0.94091,1.11992 -2.51829,1.53913 -3.97785,1.42591 -1.45957,-0.11321 -2.83805,-0.68388 -4.18593,-1.25149 -1.08167,-0.45899 -2.18323,-0.93021 -3.06907,-1.70283 -0.88583,-0.77262 -1.52994,-1.90631 -1.43355,-3.07672 0.0826,-0.96692 0.65175,-1.81604 1.22395,-2.6009 a 38.315915,38.315915 0 0 1 5.40988,-6.0647 30.292889,30.292889 0 0 1 32.58781,-4.95702 c 1.41979,0.64258 2.93137,1.57431 3.26337,3.09508 0.37789,1.74107 -0.95316,3.34752 -2.19394,4.62502 -3.89065,4.01304 -6.39976,7.04386 -10.46941,10.88249 -0.19889,-0.78333 -1.87724,-0.67165 -2.07766,-1.45345 a 22.37237,22.37237 0 0 0 -16.93189,0.98529"
         id="path76-1"
         style="display:inline;mix-blend-mode:normal;fill:#ffff00;stroke-width:0.152994" />
      <path
         class="cls-10"
         d="m -180.20306,312.25231 c 0.62728,1.31269 1.04036,2.72483 1.74873,3.99469 0.70836,1.26985 1.79921,2.43261 3.21288,2.7539 1.14746,0.26162 2.33928,-0.0566 3.47144,-0.37331 l 13.60885,-3.79273 c 1.27751,-3.87841 0.61198,-8.23875 -1.29586,-11.85248 -1.90784,-3.61372 -4.94478,-6.52827 -8.34125,-8.79411 -1.27292,-0.84912 -2.7539,-1.64469 -4.25325,-1.37695 -1.40908,0.24938 -2.48463,1.36777 -3.40106,2.46627 a 46.426148,46.426148 0 0 0 -4.70305,6.78377 q -1.04954,1.83593 -1.92773,3.7759 c -0.36566,0.80628 -1.46263,2.4066 -0.80016,3.22512 0.41155,0.50794 1.07096,0.81852 1.50087,1.32799 a 8.4330508,8.4330508 0 0 1 1.17959,1.86194 z"
         id="path78-1"
         style="display:inline;mix-blend-mode:normal;fill:#ffff00;stroke-width:0.152994" />
      <path
         class="cls-10"
         d="m -174.12612,253.84976 c -1.17806,2.51676 -2.36071,5.04882 -3.21288,7.68644 a 27.240651,27.240651 0 0 1 -1.7013,-8.89662 l -0.153,-1.4764 c 0.28151,-1.72577 0.39167,-3.47909 0.67471,-5.20181 l 0.86136,-5.27218 c 0.15299,-0.91797 0.33353,-1.89254 1.00517,-2.52747 0.70683,-0.66859 1.75944,-0.77415 2.72942,-0.84606 1.17041,-0.0842 2.41731,-0.15299 3.44696,0.41309 0.73438,0.4039 1.2668,1.08932 1.7778,1.75484 0.61198,0.78792 1.22395,1.60644 1.46722,2.57031 0.26315,1.04801 -0.0291,2.03635 -0.87666,2.67587 -0.93939,0.70989 -1.71507,1.62327 -2.41119,2.57183 -1.48099,2.01494 -2.55501,4.2915 -3.60761,6.54816 z"
         id="path80-7"
         style="display:inline;mix-blend-mode:normal;fill:#ffff00;stroke-width:0.152994" />
      <path
         class="cls-10"
         d="m -162.21857,249.31348 c 0.33659,0.37178 0.68389,0.76497 0.81087,1.24996 0.25856,0.99447 -0.50488,1.98893 -1.37695,2.53359 -0.87207,0.54466 -1.88642,0.87513 -2.64986,1.5636 -0.85371,0.76498 -1.27138,1.90019 -1.77627,2.93597 -0.50488,1.03577 -1.21477,2.0899 -2.3148,2.42955 -0.0826,0.0245 -0.52936,-4.6648 -0.53701,-5.09931 a 29.500378,29.500378 0 0 1 1.62633,-10.19707 c 0.1331,-0.38249 0.40696,-1.70589 1.02965,-1.50853 0.33659,0.1071 0.64105,1.04649 0.86289,1.31729 1.36012,1.65386 2.89159,3.18993 4.32515,4.77495 z"
         id="path82-0"
         style="display:inline;mix-blend-mode:normal;fill:#ffff00;stroke-width:0.152994" />
      <path
         class="cls-10"
         d="m -170.97291,241.44345 c -1.76402,-0.88584 -4.08648,-1.3081 -4.82697,-3.13639 -0.55384,-1.36471 0.0826,-2.90689 0.80322,-4.18745 a 29.569226,29.569226 0 0 1 2.33163,-3.52958 c 1.39378,-1.81299 2.99257,-3.45768 4.59902,-5.08707 1.97056,-1.9981 3.99774,-4.01151 6.4839,-5.31655 2.48616,-1.30504 5.53992,-1.81451 8.1087,-0.68848 2.90689,1.27598 4.60054,4.28385 6.03869,7.12495 3.77896,7.45695 7.34373,15.47539 6.8006,23.81817 -0.0597,0.94244 -0.24173,1.99964 -1.02047,2.53359 -0.60127,0.41002 -1.41367,0.38248 -2.09909,0.1331 -0.68541,-0.24938 -1.27903,-0.68847 -1.89254,-1.08014 -3.60148,-2.29491 -8.20203,-2.83804 -12.28392,-1.66458 a 15.206112,15.206112 0 0 0 -2.97268,1.22396 c -1.14592,0.61197 -1.46109,0.0872 -2.22913,-0.84453 -1.2469,-1.51312 -2.21841,-3.22359 -3.31691,-4.84074 -1.19489,-1.76709 -2.58255,-3.48216 -4.52405,-4.45826 z"
         id="path84-1"
         style="display:inline;mix-blend-mode:normal;fill:#ffff00;stroke-width:0.152994" />
      <path
         class="cls-10"
         d="m -135.7383,234.27872 c 0.18512,-0.51253 0.33353,-1.04954 0.63799,-1.5024 0.30446,-0.45287 0.81546,-0.81546 1.35859,-0.76498 0.78486,0.0673 1.25608,0.89655 1.9415,1.28516 1.20865,0.68388 2.68964,-0.12393 3.8371,-0.91032 0.95774,-0.65634 1.9981,-1.43356 2.20158,-2.57795 0.14076,-0.78793 -0.15299,-1.58503 -0.48652,-2.31328 a 20.44464,20.44464 0 0 0 -19.61235,-11.93356 26.810737,26.810737 0 0 0 -5.84285,1.01588 38.72441,38.72441 0 0 0 -4.0773,1.37695 c -1.08779,0.43756 -2.2582,1.03118 -2.65905,2.13274 -0.43909,1.2056 0.22184,2.50911 0.86289,3.62291 l 3.99468,6.94441 c 1.29128,2.2429 2.60091,4.51487 4.42001,6.35845 1.70895,1.73496 3.76672,2.87783 6.17333,3.26643 2.03329,0.32894 4.04976,-1.32952 5.33491,-2.79215 a 10.071621,10.071621 0 0 0 1.91549,-3.20829 z"
         id="path86-6"
         style="display:inline;mix-blend-mode:normal;fill:#ffff00;stroke-width:0.152994" />
      <path
         class="cls-10"
         d="m -135.60366,257.95307 a 2.4173114,2.4173114 0 0 0 1.00364,0.28151 c 0.54619,-0.009 1.03424,-0.38554 1.3234,-0.84912 0.28916,-0.46357 0.41155,-1.01129 0.52324,-1.54524 a 70.071431,70.071431 0 0 0 1.30045,-9.21638 c 0.0612,-0.82005 0.0949,-1.69824 -0.32434,-2.4066 -0.52478,-0.88431 -1.59268,-1.24997 -2.46627,-1.79157 -2.2123,-1.37695 -3.31539,-4.30832 -2.55501,-6.79907 -1.90937,-0.4804 -3.99468,0.4085 -5.27219,1.90631 -1.2775,1.49782 -1.83593,3.5051 -1.90784,5.47261 -0.0719,1.96751 0.28304,3.92125 0.64105,5.85663 q 0.33812,1.81757 0.67317,3.63514 c 0.21114,1.1444 0.36413,1.42897 1.32341,2.1251 1.70894,1.23772 3.71776,2.65751 5.73729,3.33068 z"
         id="path88-5"
         style="display:inline;mix-blend-mode:normal;fill:#ffff00;stroke-width:0.152994" />
      <path
         class="cls-10"
         d="m -136.74347,238.30859 -0.26468,-2.46321 a 6.3844559,6.3844559 0 0 0 -0.6793,2.77991 0.70224425,0.70224425 0 0 0 0.85371,-0.37636"
         id="path90-4"
         style="display:inline;mix-blend-mode:normal;fill:#ffff00;stroke-width:0.152994" />
      <path
         class="cls-10"
         d="m -124.35552,241.68212 c 0.5569,0.58444 1.15358,1.29586 1.02507,2.09296 -0.1071,0.65482 -0.70837,1.14287 -1.34789,1.32035 -0.63951,0.17747 -1.31881,0.10709 -1.97974,0.0352 l -4.9356,-0.53701 c -0.58291,-0.0643 -1.21325,-0.1178 -1.7166,0.18207 -0.53701,0.31976 -0.78486,0.95621 -0.97916,1.54983 a 34.931679,34.931679 0 0 0 -1.71354,12.2778 c 1.13675,0.45898 2.28574,0.91797 3.49439,1.10768 1.20866,0.18971 2.50605,0.0887 3.5663,-0.52324 1.06025,-0.61198 1.77015,-1.64622 2.44791,-2.64986 l 4.69234,-6.90617 c 1.26832,-1.865 2.57948,-3.8524 2.70647,-6.10448 0.10404,-1.83593 -0.59515,-3.59996 -1.28056,-5.30125 l -2.4066,-5.96678 c -0.53549,-1.328 -1.14593,-2.74625 -2.36989,-3.48828 -1.39837,-0.84912 -3.28173,-0.5416 -4.6189,0.39932 -1.03424,0.72825 -1.83593,1.79615 -2.40201,2.91913 -0.65788,1.31116 0.62575,2.02106 1.49781,2.93902 z"
         id="path92-1"
         style="display:inline;mix-blend-mode:normal;fill:#ffff00;stroke-width:0.152994" />
      <path
         class="cls-10"
         d="m -120.41132,261.99519 c 3.7759,-0.153 7.81342,-0.153 11.15023,-1.91855 0.41461,-0.22032 0.96692,-0.62422 1.52994,-0.76498 0.34577,-0.0826 0.51253,-0.16982 0.30599,-0.45898 -3.82486,-5.3548 -1.79309,-5.32879 -2.29491,-7.03774 -0.40544,-1.37695 -0.76498,-1.48864 -1.7319,-2.54889 -0.82311,-0.89654 -1.95221,-1.43662 -2.93137,-2.15875 a 9.5040115,9.5040115 0 0 1 -2.93291,-3.54947 c -0.25856,-0.54619 -0.47275,-1.12757 -0.87053,-1.58349 -0.39779,-0.45592 -1.04495,-0.76497 -1.61409,-0.55537 -0.59668,0.21725 -0.87819,0.88431 -1.10768,1.4764 a 38.322035,38.322035 0 0 1 -12.32064,16.43618 c 0.32741,-0.25397 2.49687,0.91797 2.89159,1.08473 a 19.802064,19.802064 0 0 0 3.21288,1.0113 25.745896,25.745896 0 0 0 6.7134,0.56761 z"
         id="path94-9"
         style="display:inline;mix-blend-mode:normal;fill:#ffff00;stroke-width:0.152994" />
      <path
         class="cls-11"
         d="m -108.63687,257.07336 a 7.5640426,7.5640426 0 0 0 4.36799,3.26031 13.884241,13.884241 0 0 0 2.32857,0.37483 c 0.57526,0.0581 1.18112,0.10404 1.70589,-0.13769 a 3.2343014,3.2343014 0 0 0 0.679294,-0.45899 l 0.382486,-0.30598 a 5.2691268,5.2691268 0 0 0 0.764972,-0.71602 2.6223238,2.6223238 0 0 0 -0.432975,-3.75295 c -0.611977,-0.46663 -1.390717,-0.63952 -2.141917,-0.81546 q -2.93903,-0.69001 -5.80002,-1.66764 -0.71143,-0.24326 -1.4152,-0.50335 c -0.30599,-0.11628 -0.98069,-0.53089 -1.31269,-0.45898 -0.50794,0.10862 -0.23102,1.99657 -0.1683,2.3913 a 7.4661262,7.4661262 0 0 0 1.0419,2.79062 z"
         id="path96-8"
         style="display:inline;mix-blend-mode:normal;fill:#8c8925;stroke-width:0.152994" />
      <path
         class="cls-9"
         d="m -132.56826,232.80233 -0.11933,-0.17289 a 2.3469339,2.3469339 0 0 0 -0.40085,-0.4498 1.0709607,1.0709607 0 0 0 -0.39013,-0.2096 0.99752342,0.99752342 0 0 0 -0.55231,0 c -0.40544,0.11015 -0.78945,0.43756 -1.11839,0.8583 a 9.8696681,9.8696681 0 0 0 -0.90726,1.50393 9.1536544,9.1536544 0 0 0 -0.69918,1.98893 7.7262167,7.7262167 0 0 0 -0.16371,2.46474 6.3446774,6.3446774 0 0 0 0.91797,2.68964 7.5701624,7.5701624 0 0 0 2.17711,2.21383 9.27146,9.27146 0 0 0 1.42438,0.79557 12.095736,12.095736 0 0 0 1.56054,0.5722 19.736276,19.736276 0 0 0 3.32457,0.61962 8.8185966,8.8185966 0 0 0 1.86041,0.0627 3.6443264,3.6443264 0 0 0 2.03636,-0.82311 2.536647,2.536647 0 0 0 0.42532,-0.48499 1.9537384,1.9537384 0 0 0 0.28916,-0.664 1.7762649,1.7762649 0 0 0 0,-0.77721 2.1633407,2.1633407 0 0 0 -0.1224,-0.35035 2.4387306,2.4387306 0 0 0 -0.17135,-0.30599 l -0.0979,-0.13158 -0.0474,-0.0643 -0.0367,-0.0428 -0.153,-0.17442 -0.30599,-0.34424 c -0.20501,-0.22949 -0.41461,-0.45898 -0.62421,-0.67929 -0.42227,-0.44827 -0.85218,-0.8889 -1.2821,-1.33105 -0.42991,-0.44216 -0.86441,-0.8889 -1.30045,-1.34023 -1.75637,-1.80228 -3.60149,-3.62138 -5.52463,-5.42671 0,0 0.55843,0.7971 1.65693,2.25819 0.55078,0.73132 1.23467,1.62786 2.05472,2.67588 l 1.32646,1.68293 c 0.47428,0.59821 1.00058,1.23314 1.54677,1.88642 0.27233,0.32894 0.55078,0.664 0.83076,1.0113 l 0.41768,0.5263 c 0.0688,0.0872 0.13616,0.17594 0.20501,0.26468 a 0.78639116,0.78639116 0 0 0 0.049,0.075 c 0.0138,0.0245 0.0184,0.0444 0.0306,0.0658 a 0.21572209,0.21572209 0 0 1 0.0107,0.16371 0.63798661,0.63798661 0 0 1 -0.17595,0.23408 1.5299439,1.5299439 0 0 1 -0.40543,0.2555 2.1220322,2.1220322 0 0 1 -0.53242,0.15299 5.235468,5.235468 0 0 1 -1.35859,0 c -0.51559,-0.0551 -1.05872,-0.12086 -1.59114,-0.20348 a 14.19023,14.19023 0 0 1 -3.18229,-0.81699 7.4967251,7.4967251 0 0 1 -2.77685,-1.86653 5.1849799,5.1849799 0 0 1 -0.93326,-1.43662 5.7235201,5.7235201 0 0 1 -0.43298,-1.74566 8.5248474,8.5248474 0 0 1 0.62575,-3.85393 c 0.12852,-0.31517 0.27539,-0.64105 0.42992,-0.93939 a 2.6406832,2.6406832 0 0 1 0.58749,-0.76497 1.0984997,1.0984997 0 0 1 0.37943,-0.21419 0.80016066,0.80016066 0 0 1 0.42073,0 c 0.29222,0.0796 0.56914,0.332 0.81852,0.59209 z"
         id="path98-0"
         style="display:inline;mix-blend-mode:normal;stroke:#000000;stroke-width:0.152994;stroke-miterlimit:10" />
      <path
         class="cls-7"
         d="m -184.40582,252.91497 -0.6594,-1.67223 c -0.43145,-1.09391 -1.08014,-2.69882 -1.83593,-4.77037 -0.37331,-1.03577 -0.76498,-2.18935 -1.14746,-3.45614 a 42.209622,42.209622 0 0 1 -1.02659,-4.14003 30.791651,30.791651 0 0 1 -0.54772,-4.77036 c -0.026,-0.83994 -0.0153,-1.69977 0.0444,-2.57184 a 21.867488,21.867488 0 0 1 0.35954,-2.64374 20.888324,20.888324 0 0 1 1.87877,-5.3135 l 0.35495,-0.65481 0.17747,-0.32894 c 0.0612,-0.10863 0.12852,-0.21572 0.19278,-0.32435 l 0.39166,-0.65328 c 0.14076,-0.21267 0.28151,-0.42839 0.42227,-0.64411 l 0.21266,-0.32435 0.22643,-0.31976 0.45898,-0.64104 c 0.32435,-0.41921 0.63493,-0.85218 0.98223,-1.2668 a 57.077617,57.077617 0 0 1 4.573,-4.96466 c 1.67376,-1.63398 3.47909,-3.2802 5.3089,-5.01975 1.82982,-1.73955 3.6887,-3.58466 5.4206,-5.63937 a 36.530471,36.530471 0 0 0 2.46321,-3.24654 30.918636,30.918636 0 0 0 2.07919,-3.59384 29.9869,29.9869 0 0 0 2.56878,-7.96336 29.068934,29.068934 0 0 0 0.19889,-8.38562 l -0.0321,0.38248 c -0.0107,0.12699 -0.0229,0.28457 -0.0382,0.47276 0,0.0933 -0.0138,0.1943 -0.023,0.30598 -0.009,0.11169 -0.0245,0.22491 -0.0383,0.34883 -0.0275,0.24785 -0.0597,0.52477 -0.0933,0.83076 -0.0337,0.30599 -0.0933,0.63952 -0.153,1.00211 -0.0597,0.3626 -0.13463,0.75121 -0.20654,1.16735 -0.0719,0.41615 -0.18359,0.85524 -0.28457,1.32187 -0.0581,0.23255 -0.11934,0.47123 -0.18206,0.71602 -0.0321,0.12239 -0.0627,0.24632 -0.0949,0.37177 -0.0321,0.12546 -0.0734,0.25244 -0.11169,0.37943 q -0.11321,0.38401 -0.23102,0.78639 -0.1178,0.40238 -0.2708,0.81393 a 34.226375,34.226375 0 0 1 -1.4412,3.5357 31.516844,31.516844 0 0 1 -2.17711,3.83404 33.998413,33.998413 0 0 1 -3.07978,3.93808 c -1.18571,1.32187 -2.52441,2.65292 -3.9901,4.01457 -1.46568,1.36165 -3.05988,2.7539 -4.72293,4.24559 q -1.24844,1.11839 -2.53971,2.32552 -1.29127,1.20712 -2.56725,2.55959 c -0.85064,0.90267 -1.69058,1.8543 -2.50757,2.86406 a 36.146455,36.146455 0 0 0 -2.32093,3.24348 26.282906,26.282906 0 0 0 -1.94915,3.6841 c -0.14075,0.32588 -0.2861,0.65176 -0.4039,0.99294 -0.0612,0.16982 -0.1224,0.33812 -0.18513,0.50794 -0.0627,0.16982 -0.12545,0.33812 -0.17594,0.51406 q -0.15299,0.52171 -0.31517,1.04648 -0.12698,0.53395 -0.2555,1.07096 a 21.466643,21.466643 0 0 0 -0.46816,4.43684 26.146741,26.146741 0 0 0 0.38861,4.50416 c 0.52324,2.99257 1.52994,5.93006 2.83192,8.75586 1.30198,2.82581 2.88701,5.57818 4.54087,8.33514 z"
         id="path100-1"
         style="display:inline;mix-blend-mode:normal;stroke:#000000;stroke-width:0.305989px;stroke-miterlimit:10" />
      <path
         class="cls-7"
         d="m -177.29617,261.449 0.50948,-1.34177 c 0.35188,-0.87512 0.87818,-2.1664 1.67222,-3.7759 0.20502,-0.40084 0.40697,-0.82923 0.6487,-1.26526 l 0.3626,-0.67471 c 0.12392,-0.22949 0.26162,-0.45898 0.39625,-0.69765 0.53701,-0.9501 1.16888,-1.9568 1.88183,-3.01552 0.71296,-1.05872 1.52995,-2.15416 2.44791,-3.27867 0.91797,-1.12451 1.93079,-2.26891 3.05989,-3.40871 l -1.46721,-1.12451 a 22.006713,22.006713 0 0 0 -3.67187,9.52543 c -0.0474,0.45898 -0.10863,0.93173 -0.14381,1.40755 -0.0122,0.23714 -0.0245,0.47734 -0.0367,0.71754 -0.0122,0.2402 -0.0275,0.48193 -0.0214,0.72519 0.006,0.24326 0,0.48653 0,0.73132 v 0.28304 c 0,0.0352 0.009,0.0933 0.0122,0.13769 l 0.0551,0.58138 q 0.0551,0.58597 0.11168,1.17806 l 0.0138,0.15299 c 0,0.049 0.0184,0.0964 0.026,0.14382 l 0.0551,0.28915 c 0.0367,0.19431 0.0719,0.38708 0.10862,0.58138 0.0367,0.19431 0.075,0.39014 0.11169,0.58597 l 0.0566,0.29528 c 0.009,0.049 0.0168,0.10098 0.0291,0.153 l 0.0367,0.13157 c 0.0979,0.35342 0.19737,0.70683 0.29681,1.07096 l 0.153,0.53701 c 0.0536,0.17595 0.10862,0.35189 0.16217,0.52936 q 0.16524,0.52936 0.332,1.07096 l 0.3626,1.13828 0.18818,0.58444 0.0949,0.29222 0.0474,0.15299 a 0.56913913,0.56913913 0 0 0 0.026,0.0581 l 0.20043,0.43604 c 0.009,0.0168 0.0505,0.12545 0.0811,0.20348 l 0.0994,0.25244 0.19736,0.511 q 0.74662,-2.64374 1.507,-5.33338 l 0.0903,-0.31976 0.0459,-0.153 a 1.2514941,1.2514941 0 0 1 0.0459,-0.12545 l 0.18818,-0.45899 c 0.12546,-0.30598 0.25091,-0.62574 0.3779,-0.93938 a 4.9447787,4.9447787 0 0 1 0.41614,-0.83076 l 0.4391,-0.77721 0.11015,-0.19431 0.0138,-0.0245 v -0.0107 l 0.0168,-0.023 0.0306,-0.0444 0.12699,-0.18053 0.25397,-0.3626 c 0.17135,-0.23408 0.35036,-0.44674 0.52477,-0.67471 l 0.56302,-0.6441 c 0.20195,-0.20349 0.39931,-0.41309 0.60433,-0.61198 a 14.857285,14.857285 0 0 1 2.78296,-2.15875 14.17952,14.17952 0 0 1 3.27255,-1.39837 14.687461,14.687461 0 0 1 3.62903,-0.55843 15.189283,15.189283 0 0 1 3.75142,0.34271 14.638503,14.638503 0 0 1 1.83594,0.53701 c 0.15299,0.0566 0.30599,0.10556 0.45898,0.16829 l 0.43909,0.18971 0.22185,0.0949 c 0.0734,0.0321 0.15299,0.0704 0.22031,0.10557 0.15299,0.0719 0.29375,0.14075 0.43909,0.22031 a 30.026679,30.026679 0 0 1 3.49898,2.22301 c 1.17959,0.83688 2.38825,1.74107 3.71012,2.57336 a 30.502492,30.502492 0 0 0 4.1645,2.19547 31.484716,31.484716 0 0 0 4.48427,1.54984 32.707141,32.707141 0 0 0 9.49942,1.03577 32.075274,32.075274 0 0 0 4.78414,-0.5569 29.598295,29.598295 0 0 0 9.01443,-3.30315 l -0.28304,0.10557 c -0.18972,0.0673 -0.46664,0.18053 -0.83994,0.30598 a 32.704081,32.704081 0 0 1 -8.97618,1.80075 33.432334,33.432334 0 0 1 -7.67726,-0.42992 33.055968,33.055968 0 0 1 -4.42766,-1.09085 c -0.76497,-0.23867 -1.52994,-0.52783 -2.30257,-0.83534 -0.77262,-0.30752 -1.55289,-0.664 -2.32551,-1.07097 -0.39167,-0.18818 -0.77262,-0.41155 -1.16429,-0.61962 l -0.57679,-0.33965 -0.29069,-0.17135 -0.2861,-0.18054 -0.57678,-0.36718 c -0.18819,-0.12852 -0.3779,-0.25703 -0.56761,-0.38861 -0.38249,-0.25703 -0.76498,-0.54007 -1.14593,-0.82617 -0.76497,-0.57985 -1.55595,-1.20407 -2.38671,-1.83593 -0.83076,-0.63187 -1.70895,-1.28974 -2.67435,-1.90478 -0.4804,-0.30599 -0.98375,-0.60433 -1.51158,-0.88125 l -0.39779,-0.20501 -0.41308,-0.19125 -0.41615,-0.19124 c -0.13922,-0.0612 -0.28304,-0.11321 -0.42379,-0.16982 a 17.44136,17.44136 0 0 0 -3.58313,-0.996 17.900344,17.900344 0 0 0 -7.72928,0.40238 16.875281,16.875281 0 0 0 -3.78355,1.56666 17.504088,17.504088 0 0 0 -3.37352,2.48922 l -0.38555,0.36719 c -0.12545,0.12545 -0.24479,0.25703 -0.36872,0.38554 l -0.36412,0.39014 -0.3473,0.41002 c -0.11322,0.1377 -0.23561,0.2708 -0.34118,0.41462 l -0.32587,0.43144 c -0.22644,0.28763 -0.40544,0.57679 -0.6028,0.86595 l -0.12852,0.19124 -0.0138,0.0291 -0.0275,0.0566 -0.0566,0.12852 a 3.0231691,3.0231691 0 0 0 -0.1071,0.30599 c -0.0199,0.0704 -0.0413,0.15299 -0.0581,0.22949 l -0.0153,0.0612 c 0,0.009 0,0 0,0 v -0.009 l -0.009,-0.0153 -0.0367,-0.0704 a 2.2551373,2.2551373 0 0 1 -0.13922,-0.35036 c -0.023,-0.0688 -0.0383,-0.14381 -0.0597,-0.2249 a 0.45898317,0.45898317 0 0 1 -0.0153,-0.075 l -0.0138,-0.0872 -0.0291,-0.18053 -0.0643,-1.17347 c 0,-0.41002 0,-0.82158 0,-1.23466 a 20.72768,20.72768 0 0 1 2.80897,-9.74727 l -1.73954,-1.33411 a 43.788524,43.788524 0 0 0 -9.48566,18.82596 z"
         id="path102-5"
         style="display:inline;mix-blend-mode:normal;stroke:#000000;stroke-width:0.305989px;stroke-miterlimit:10" />
      <path
         class="cls-7"
         d="m -177.37572,261.53008 -0.18972,-0.80628 -0.23255,-0.98681 c -0.0536,-0.1943 -0.0796,-0.41156 -0.12392,-0.63952 -0.0444,-0.22796 -0.0841,-0.47428 -0.13005,-0.73437 -0.0459,-0.26009 -0.0994,-0.53395 -0.14381,-0.82464 -0.0444,-0.29069 -0.0734,-0.60127 -0.11169,-0.91797 -0.0383,-0.3167 -0.0796,-0.65787 -0.12239,-1.00976 l -0.0704,-1.10309 a 35.624744,35.624744 0 0 1 0.0551,-5.24771 c 0.0474,-0.48958 0.0979,-0.9914 0.15299,-1.50699 0.078,-0.511 0.153,-1.03424 0.2402,-1.57125 0.0214,-0.13464 0.0413,-0.26927 0.0627,-0.40544 0.0214,-0.13616 0.0551,-0.26927 0.0841,-0.40543 l 0.17288,-0.82311 c 0.0612,-0.27692 0.11016,-0.55996 0.18206,-0.83994 l 0.22797,-0.84912 a 35.207069,35.207069 0 0 1 2.75389,-7.11577 33.478232,33.478232 0 0 1 4.92642,-7.09588 c 0.12087,-0.153 0.25856,-0.28151 0.3932,-0.41921 l 0.4039,-0.41308 0.40544,-0.41615 c 0.13616,-0.13769 0.26774,-0.28151 0.41614,-0.41002 0.28763,-0.26468 0.57832,-0.52936 0.87207,-0.7971 0.14535,-0.13311 0.29069,-0.26927 0.4391,-0.40085 l 0.45898,-0.37789 0.93632,-0.76498 c 0.32282,-0.24632 0.65635,-0.4804 0.98682,-0.72366 0.65022,-0.50182 1.36471,-0.92714 2.06389,-1.38919 a 35.393722,35.393722 0 0 1 4.55006,-2.36988 c 0.79098,-0.37178 1.62939,-0.6487 2.45862,-0.96846 0.42073,-0.14381 0.84911,-0.26774 1.27597,-0.40543 l 0.64411,-0.20195 0.65634,-0.16371 a 32.059974,32.059974 0 0 1 5.42671,-0.95009 l 1.40143,-0.1071 c 0.47122,-0.0184 0.94245,-0.0306 1.41367,-0.0291 a 25.244074,25.244074 0 0 1 2.82428,0.153 17.660142,17.660142 0 0 1 5.42365,1.45344 c 0.2096,0.10251 0.41767,0.2142 0.6288,0.31976 l 0.31517,0.153 c 0.10404,0.0566 0.20348,0.12239 0.30599,0.18206 l 0.61198,0.36719 0.59056,0.41002 0.29681,0.20501 0.2861,0.22644 0.57066,0.45898 0.55078,0.48958 c 0.0918,0.0826 0.18666,0.16065 0.27539,0.24785 l 0.26468,0.26315 a 23.845706,23.845706 0 0 1 2.02106,2.25361 l 0.47275,0.61198 c 0.16065,0.20042 0.30599,0.4192 0.45899,0.6288 0.30599,0.41921 0.59208,0.86289 0.88583,1.30046 a 57.210722,57.210722 0 0 1 3.1624,5.67303 c 0.9914,1.98893 1.95986,4.06812 3.03235,6.14731 0.53089,1.04036 1.10309,2.0792 1.70435,3.11191 0.60127,1.03271 1.26527,2.04859 1.97363,3.04306 a 29.970071,29.970071 0 0 0 2.34082,2.86252 23.622334,23.622334 0 0 0 2.76613,2.53359 24.199123,24.199123 0 0 0 6.57876,3.63668 23.336234,23.336234 0 0 0 3.64739,1.00364 17.288366,17.288366 0 0 1 1.69671,0.40237 6.0111496,6.0111496 0 0 1 1.482513,0.64258 c 0.422265,0.27692 0.731313,0.61198 0.855239,1.01894 a 1.800744,1.800744 0 0 1 0.06732,0.32282 1.9323191,1.9323191 0 0 1 0,0.32588 1.6829383,1.6829383 0 0 1 -0.211132,0.64411 2.7676685,2.7676685 0 0 1 -0.471223,0.58902 3.8248598,3.8248598 0 0 1 -0.648696,0.48653 4.4873255,4.4873255 0 0 1 -0.754261,0.358 l -0.1989,0.0688 -0.20195,0.0581 c -0.13616,0.0352 -0.28151,0.0597 -0.42379,0.0918 a 7.3131318,7.3131318 0 0 1 -6.56652,-2.197 7.6711387,7.6711387 0 0 1 -1.69212,-7.14637 l -0.0612,0.17135 c -0.0383,0.11322 -0.10709,0.28304 -0.16523,0.51559 a 7.5242641,7.5242641 0 0 0 -0.27692,2.13274 8.0092563,8.0092563 0 0 0 0.80934,3.46074 7.4232878,7.4232878 0 0 0 1.34635,1.92161 c 0.15299,0.15299 0.29834,0.30599 0.46816,0.44521 l 0.25091,0.21572 0.26927,0.20349 c 0.17748,0.14075 0.37637,0.2555 0.57067,0.38707 l 0.30599,0.17595 c 0.10251,0.0597 0.20807,0.11627 0.3167,0.16829 a 8.4345807,8.4345807 0 0 0 1.38613,0.54772 8.7834079,8.7834079 0 0 0 1.55595,0.30599 8.316775,8.316775 0 0 0 1.68294,-0.0153 c 0.14381,-0.0199 0.28763,-0.0367 0.43603,-0.0612 0.14841,-0.0245 0.30599,-0.0566 0.45899,-0.10098 a 5.9943202,5.9943202 0 0 0 0.896546,-0.30598 4.9876171,4.9876171 0 0 0 1.667639,-1.17653 4.0206926,4.0206926 0 0 0 0.353417,-0.44981 3.6718654,3.6718654 0 0 0 0.287629,-0.53089 3.0966065,3.0966065 0 0 0 0.266211,-1.24537 3.189933,3.189933 0 0 0 -0.244791,-1.27903 3.4943919,3.4943919 0 0 0 -0.717544,-1.0832 5.9147631,5.9147631 0 0 0 -1.92467,-1.26527 14.155041,14.155041 0 0 0 -2.010347,-0.68235 l -0.50182,-0.13158 -0.45899,-0.12545 c -0.30599,-0.0796 -0.61197,-0.18207 -0.92867,-0.27845 a 22.678358,22.678358 0 0 1 -3.70706,-1.58808 22.158178,22.158178 0 0 1 -6.73175,-5.60572 31.493895,31.493895 0 0 1 -2.73095,-4.00998 c -0.84453,-1.45192 -1.62633,-3.01246 -2.40048,-4.64338 -0.77415,-1.63092 -1.5376,-3.33681 -2.36071,-5.09012 -0.8231,-1.75332 -1.7273,-3.56018 -2.78143,-5.34563 l -0.40544,-0.66858 -0.20501,-0.33506 -0.21419,-0.32894 q -0.21572,-0.33353 -0.43298,-0.66553 l -0.45898,-0.65787 c -0.30599,-0.44368 -0.63952,-0.86901 -0.96692,-1.30351 -0.16371,-0.21726 -0.34577,-0.42533 -0.51866,-0.63799 -0.17288,-0.21266 -0.34576,-0.42838 -0.53854,-0.63187 l -0.56149,-0.61962 c -0.18665,-0.20808 -0.39472,-0.40085 -0.59361,-0.60127 -0.39014,-0.40697 -0.8277,-0.77874 -1.25456,-1.16276 -0.21572,-0.18971 -0.4498,-0.3626 -0.6747,-0.54466 -0.2249,-0.18206 -0.45899,-0.3626 -0.69919,-0.52477 -0.2402,-0.16217 -0.48193,-0.33506 -0.72519,-0.50182 -0.24326,-0.16677 -0.50641,-0.30599 -0.76497,-0.45898 l -0.3779,-0.23409 -0.39931,-0.20348 c -0.26774,-0.13463 -0.53395,-0.27386 -0.80475,-0.4039 -0.55078,-0.2448 -1.10921,-0.47888 -1.68294,-0.66859 -0.57373,-0.18971 -1.15358,-0.36107 -1.73955,-0.511 -0.58597,-0.14994 -1.17959,-0.26162 -1.77626,-0.35036 a 25.225715,25.225715 0 0 0 -3.60914,-0.30599 c -0.61198,-0.0122 -1.20866,0 -1.81299,0.0245 -0.60432,0.0245 -1.20865,0.0872 -1.81451,0.14076 a 36.28109,36.28109 0 0 0 -25.89736,15.04853 35.121392,35.121392 0 0 0 -5.98055,15.31167 c -0.78945,5.57818 -0.28457,11.46846 1.72425,16.94719 z"
         id="path104-5"
         style="display:inline;mix-blend-mode:normal;stroke:#000000;stroke-width:0.305989px;stroke-miterlimit:10" />
      <path
         class="cls-7"
         d="m -107.33642,261.64942 -0.31517,0.38248 -0.38249,0.4697 -0.24479,0.30599 c -0.0887,0.10709 -0.17747,0.2249 -0.28763,0.33811 a 28.715517,28.715517 0 0 1 -11.24661,7.7813 31.767755,31.767755 0 0 1 -4.91724,1.40296 27.750122,27.750122 0 0 1 -17.85904,-2.61009 c -1.00823,-0.52171 -2.03176,-1.12451 -3.10425,-1.75637 -1.0725,-0.63187 -2.19853,-1.28363 -3.42555,-1.87418 -0.61198,-0.29222 -1.25302,-0.57067 -1.91855,-0.81546 a 15.582479,15.582479 0 0 0 -2.11285,-0.6028 13.729717,13.729717 0 0 0 -2.23831,-0.24785 11.583205,11.583205 0 0 0 -2.30715,0.17594 9.0740973,9.0740973 0 0 0 -2.29492,0.72213 7.9220495,7.9220495 0 0 0 -2.08378,1.3999 7.5380336,7.5380336 0 0 0 -1.51771,2.05166 c -0.0887,0.19277 -0.18971,0.38095 -0.26315,0.57832 l -0.21266,0.59514 -0.153,0.61198 c -0.052,0.20195 -0.075,0.40697 -0.11321,0.61198 a 9.9354557,9.9354557 0 0 0 0.50641,4.75506 10.767745,10.767745 0 0 0 1.03424,2.14193 13.616501,13.616501 0 0 0 1.4152,1.83593 19.694968,19.694968 0 0 0 3.44543,2.94055 c 1.22396,0.85065 2.50911,1.59726 3.78203,2.33929 1.27291,0.74202 2.54429,1.49169 3.7606,2.34999 a 18.024269,18.024269 0 0 1 3.37046,2.9941 c 0,0 -0.075,-0.11934 -0.22184,-0.35801 -0.0719,-0.12086 -0.16982,-0.26621 -0.28916,-0.43603 l -0.1943,-0.27692 -0.23867,-0.30599 c -0.66706,-0.88278 -1.79616,-2.1052 -3.44238,-3.45767 -0.81699,-0.68236 -1.75637,-1.3999 -2.7799,-2.17711 -1.02354,-0.77722 -2.11592,-1.61868 -3.19453,-2.60091 -1.07861,-0.98222 -2.14192,-2.09908 -2.96044,-3.43319 -0.10862,-0.16371 -0.19583,-0.33965 -0.29528,-0.50947 -0.0994,-0.16983 -0.17135,-0.34424 -0.26009,-0.51712 -0.0887,-0.17289 -0.15299,-0.35954 -0.22643,-0.54007 -0.0734,-0.18054 -0.13157,-0.37331 -0.18971,-0.56302 a 8.2769965,8.2769965 0 0 1 -0.35036,-2.3959 v -0.15299 c 0,-0.0505 0,-0.10098 0.0107,-0.153 0,-0.10097 0.0138,-0.20348 0.0199,-0.30598 0.006,-0.10251 0.0275,-0.20043 0.0398,-0.30599 0.0122,-0.10557 0.0229,-0.20196 0.0474,-0.30599 a 5.3043155,5.3043155 0 0 1 0.15299,-0.58138 l 0.0887,-0.2861 c 0.0398,-0.0903 0.078,-0.18053 0.11627,-0.27233 a 4.4597865,4.4597865 0 0 1 1.44274,-1.80992 c 1.29127,-0.95928 3.27255,-1.30352 5.29055,-0.9807 a 10.460226,10.460226 0 0 1 1.50546,0.35036 14.676752,14.676752 0 0 1 1.54371,0.58291 32.332304,32.332304 0 0 1 3.18994,1.65081 c 1.09544,0.62421 2.23678,1.30657 3.47297,1.95221 a 28.91594,28.91594 0 0 0 12.78115,3.28479 27.883228,27.883228 0 0 0 9.3602,-1.45498 l 0.28916,-0.0918 0.28457,-0.10862 0.57067,-0.21879 0.57067,-0.22031 0.28457,-0.11015 0.27998,-0.12852 1.11991,-0.50947 c 0.0933,-0.0444 0.18666,-0.0857 0.27845,-0.13158 l 0.27233,-0.15299 0.54619,-0.29375 c 0.73744,-0.37331 1.43203,-0.83382 2.14193,-1.27444 0.179,-0.1071 0.34576,-0.23561 0.51559,-0.35648 l 0.511,-0.36719 0.511,-0.36871 c 0.17135,-0.11934 0.32741,-0.26315 0.49264,-0.39473 0.32435,-0.26774 0.65023,-0.53548 0.9761,-0.80628 0.32588,-0.2708 0.61963,-0.57985 0.92868,-0.87054 0.153,-0.15299 0.30599,-0.28916 0.45898,-0.44062 l 0.43604,-0.46969 0.4345,-0.4697 c 0.14229,-0.15299 0.29681,-0.30598 0.42686,-0.4804 l 0.80781,-1.00211 0.20042,-0.25244 0.18512,-0.26468 0.37025,-0.53242 0.36872,-0.53089 0.0918,-0.13311 0.0842,-0.13922 0.16523,-0.27998 z"
         id="path106-1"
         style="display:inline;mix-blend-mode:normal;stroke:#000000;stroke-width:0.305989px;stroke-miterlimit:10" />
      <path
         class="cls-12"
         d="m -169.27467,271.11365 -0.12699,0.11628 -0.15299,0.14228 c -0.0597,0.0627 -0.13004,0.13311 -0.2096,0.21419 a 7.1800267,7.1800267 0 0 0 -0.5416,0.65788 7.4615364,7.4615364 0 0 0 -0.60127,1.03271 8.4146915,8.4146915 0 0 0 -0.76191,3.32763 11.98711,11.98711 0 0 0 1.49169,5.98055 11.756089,11.756089 0 0 0 0.80934,1.26526 18.044158,18.044158 0 0 0 2.09297,2.41579 c 1.5942,1.55748 3.55559,2.95279 5.65161,4.31903 1.04495,0.68694 2.13274,1.36318 3.20217,2.08837 l 0.81546,0.54466 0.81393,0.56761 c 0.55078,0.37331 1.09238,0.77568 1.64316,1.17806 l 0.41615,0.30599 0.40849,0.31363 0.82464,0.63646 c 0.27998,0.20807 0.54619,0.43756 0.82005,0.65788 l 0.82464,0.67164 c 1.07861,0.93021 2.17252,1.88948 3.21288,2.93902 0.26009,0.26315 0.52783,0.52018 0.78333,0.78946 l 0.76498,0.8231 c 0.12545,0.1377 0.25703,0.27233 0.37942,0.41462 0.1224,0.14228 0.24326,0.2861 0.36413,0.43144 l 0.73284,0.86595 0.69307,0.90573 0.35035,0.45898 0.32435,0.47275 c 0.21572,0.3167 0.4391,0.63187 0.65482,0.95163 l 0.61198,0.98987 c 0.0994,0.16677 0.21113,0.32741 0.30598,0.5003 l 0.27386,0.51406 0.27692,0.51712 c 0.0918,0.17135 0.19125,0.34117 0.26774,0.52171 l 0.49112,1.07096 0.12545,0.26927 0.10404,0.27539 c 0.0704,0.18512 0.14228,0.36872 0.21266,0.55384 0.14076,0.37025 0.29681,0.73743 0.40238,1.11992 0.10556,0.38248 0.24632,0.75579 0.35035,1.14134 l 0.28916,1.1704 a 2.4983984,2.4983984 0 0 1 0.0627,0.29681 l 0.0551,0.30599 0.11015,0.59974 a 27.341627,27.341627 0 0 1 0.36872,4.95855 27.710344,27.710344 0 0 1 -0.59668,5.10695 28.63596,28.63596 0 0 1 -1.55595,5.04881 27.159564,27.159564 0 0 1 -2.5749,4.76884 30.673845,30.673845 0 0 1 -7.98018,8.0062 33.26404,33.26404 0 0 1 -10.8932,4.92795 36.935906,36.935906 0 0 1 -12.57767,0.85064 41.788888,41.788888 0 0 1 -12.81787,-3.41789 l 0.52171,0.33812 c 0.34883,0.22184 0.86442,0.56608 1.57737,0.96386 a 37.330631,37.330631 0 0 0 6.6216,2.99257 39.590358,39.590358 0 0 0 5.21405,1.36777 37.177637,37.177637 0 0 0 6.51297,0.61198 c 0.29681,0.0122 0.59668,0 0.8996,-0.0107 l 0.91797,-0.0245 c 0.61198,-0.0321 1.24537,-0.0872 1.88489,-0.13463 l 0.9654,-0.11934 0.48805,-0.0627 0.24632,-0.0306 0.24632,-0.0428 0.99293,-0.17595 c 0.16677,-0.0306 0.33506,-0.0581 0.50336,-0.0918 l 0.50182,-0.11474 1.01588,-0.23408 c 0.34118,-0.0826 0.67929,-0.18819 1.022,-0.28304 l 0.51559,-0.153 0.26009,-0.075 0.25703,-0.0857 1.03578,-0.35189 c 0.35035,-0.11168 0.69306,-0.2555 1.04036,-0.39166 0.3473,-0.13617 0.69765,-0.27233 1.04648,-0.42227 l 1.04189,-0.47428 c 0.17442,-0.0811 0.35189,-0.15299 0.52477,-0.24479 l 0.51712,-0.26774 c 0.34577,-0.18053 0.69919,-0.35648 1.04496,-0.54772 l 1.03424,-0.6028 c 0.35035,-0.19736 0.68541,-0.42226 1.02659,-0.64564 l 0.51406,-0.33658 c 0.17135,-0.11169 0.34424,-0.22338 0.50947,-0.34883 l 1.00824,-0.7359 c 0.17135,-0.12087 0.33352,-0.25397 0.49723,-0.38708 l 0.49264,-0.40084 0.4957,-0.40391 c 0.16523,-0.13616 0.31976,-0.2861 0.4804,-0.42838 0.31823,-0.28916 0.64411,-0.57679 0.96081,-0.87666 a 34.117749,34.117749 0 0 0 3.54947,-4.03293 30.929346,30.929346 0 0 0 2.92066,-4.83463 29.804837,29.804837 0 0 0 2.05166,-5.50779 31.775405,31.775405 0 0 0 1.01129,-6.03716 29.951712,29.951712 0 0 0 -0.26315,-6.36457 28.049991,28.049991 0 0 0 -1.75944,-6.38293 l -0.32588,-0.77568 c -0.11015,-0.25856 -0.21266,-0.52171 -0.34423,-0.76497 l -0.76498,-1.51464 -0.85829,-1.46875 c -0.1377,-0.24938 -0.30599,-0.47734 -0.45899,-0.71601 -0.15299,-0.23868 -0.3167,-0.47276 -0.47581,-0.7099 a 37.550943,37.550943 0 0 0 -4.43684,-5.24771 c -3.2802,-3.25725 -7.12342,-5.96678 -11.22825,-8.35043 l -0.76498,-0.44521 -0.78333,-0.42992 -0.78792,-0.42838 -0.78639,-0.41615 c -1.04648,-0.54925 -2.0899,-1.08473 -3.11038,-1.64316 -2.03788,-1.11533 -4.00539,-2.32245 -5.66079,-3.87993 -0.20348,-0.19737 -0.40237,-0.39779 -0.6028,-0.59974 -0.20042,-0.20195 -0.38554,-0.42074 -0.56608,-0.63187 a 10.763155,10.763155 0 0 1 -0.96998,-1.36471 10.969698,10.969698 0 0 1 -1.28668,-3.16851 8.8935639,8.8935639 0 0 1 -0.153,-3.45309 6.5634593,6.5634593 0 0 1 1.42744,-3.18534 z"
         id="path108-3"
         style="display:inline;mix-blend-mode:normal;stroke:#000000;stroke-width:0.458983px;stroke-miterlimit:10" />
      <path
         class="cls-7"
         d="m -149.18804,334.37989 -0.76497,-0.0903 c -0.2555,-0.0245 -0.56914,-0.0719 -0.94397,-0.12698 -0.37484,-0.0551 -0.80628,-0.12699 -1.29434,-0.21419 a 36.704884,36.704884 0 0 1 -8.18367,-2.52288 c -0.21266,-0.0887 -0.42532,-0.18665 -0.63798,-0.28916 l -0.65176,-0.30599 c -0.43297,-0.22031 -0.88278,-0.4345 -1.32799,-0.68235 q -1.34941,-0.71602 -2.74472,-1.63245 a 35.164231,35.164231 0 0 1 -5.56747,-4.50416 31.493895,31.493895 0 0 1 -4.97996,-6.38445 c -0.7252,-1.22396 -1.3693,-2.56725 -2.10674,-3.97786 -0.73743,-1.41061 -1.57584,-2.88853 -2.75389,-4.26701 a 12.651106,12.651106 0 0 0 -2.018,-1.91243 12.086557,12.086557 0 0 0 -2.47545,-1.43662 14.812917,14.812917 0 0 0 -5.66079,-1.19183 16.997677,16.997677 0 0 0 -5.88111,0.9654 16.292373,16.292373 0 0 0 -2.80744,1.30657 c -0.22185,0.1377 -0.45899,0.27233 -0.664,0.42074 -0.20501,0.1484 -0.42532,0.30598 -0.63952,0.44827 -0.21419,0.14228 -0.41614,0.31517 -0.61962,0.47887 -0.20349,0.16371 -0.41156,0.32435 -0.61198,0.50029 -0.38402,0.35648 -0.7818,0.70378 -1.13522,1.09544 -0.17747,0.19278 -0.37025,0.37637 -0.53701,0.57985 -0.16676,0.20348 -0.33965,0.40544 -0.511,0.61198 a 19.812774,19.812774 0 0 0 -1.78698,2.63303 l -0.20042,0.3473 c -0.0658,0.11628 -0.12239,0.23714 -0.18512,0.35495 l -0.3626,0.71448 -0.32588,0.73284 c -0.0535,0.12393 -0.11168,0.2448 -0.15299,0.36872 l -0.14381,0.37637 a 22.877251,22.877251 0 0 0 -0.9654,3.08283 l -0.179,0.79251 c -0.049,0.26774 -0.0964,0.53549 -0.14535,0.80323 -0.049,0.26774 -0.0872,0.53701 -0.12239,0.80781 -0.0352,0.2708 -0.078,0.5416 -0.0979,0.8124 a 30.479542,30.479542 0 0 0 -0.15299,3.26031 c 0.0107,1.08932 0.0841,2.17864 0.19277,3.2649 0.10863,1.08626 0.27845,2.16487 0.47122,3.24042 0.39473,2.14192 0.93021,4.27313 1.52995,6.3768 a 59.005346,59.005346 0 0 0 2.14192,6.34468 c 0.87512,2.10673 1.98127,4.19358 3.4439,6.06776 a 21.992944,21.992944 0 0 0 2.42955,2.6009 23.013416,23.013416 0 0 0 2.82887,2.15722 24.451563,24.451563 0 0 0 13.50481,3.82486 27.884758,27.884758 0 0 0 13.50635,-3.76519 l -0.59515,0.24785 c -0.19583,0.0842 -0.44062,0.18666 -0.73896,0.29681 -0.29834,0.11016 -0.63952,0.24785 -1.03884,0.3779 l -0.63033,0.21266 -0.71143,0.21266 c -0.24632,0.0796 -0.50947,0.153 -0.78486,0.21725 -0.27539,0.0643 -0.55996,0.153 -0.86289,0.21267 a 28.049991,28.049991 0 0 1 -4.21346,0.64716 l -0.61198,0.0428 c -0.20501,0.0168 -0.41614,0.0168 -0.62728,0.0245 -0.21113,0.008 -0.42685,0.0184 -0.64563,0.0168 h -0.66094 c -0.22337,0 -0.4498,0 -0.67929,-0.0199 l -0.69307,-0.0337 -0.70836,-0.0627 c -0.11934,-0.0107 -0.2402,-0.0183 -0.35954,-0.0336 l -0.3626,-0.0474 a 23.008826,23.008826 0 0 1 -3.00786,-0.56914 22.447337,22.447337 0 0 1 -3.14251,-1.04648 23.148051,23.148051 0 0 1 -3.16698,-1.5942 21.581389,21.581389 0 0 1 -3.04,-2.23984 19.168667,19.168667 0 0 1 -2.6927,-2.92526 18.285889,18.285889 0 0 1 -1.1444,-1.73495 c -0.18359,-0.30599 -0.3473,-0.61198 -0.52018,-0.9348 -0.17289,-0.32282 -0.33047,-0.64257 -0.48193,-0.97763 -1.24844,-2.65751 -2.11745,-5.7327 -2.94821,-9.02667 -0.41155,-1.6401 -0.79098,-3.31692 -1.08167,-5.03352 -0.15299,-0.85676 -0.26927,-1.72424 -0.37177,-2.6009 -0.0413,-0.43756 -0.0949,-0.87819 -0.12087,-1.32034 -0.0153,-0.22031 -0.0352,-0.44216 -0.0459,-0.664 l -0.0291,-0.66705 c -0.0275,-0.89043 -0.0291,-1.78851 0.0291,-2.68812 0.0184,-0.4498 0.0688,-0.89807 0.11016,-1.35094 0.0214,-0.2249 0.0597,-0.44521 0.0887,-0.67011 0.0291,-0.2249 0.0581,-0.44827 0.10403,-0.67012 0.0459,-0.22184 0.0811,-0.44674 0.1224,-0.67164 0.0413,-0.2249 0.1025,-0.44369 0.15299,-0.66706 0.026,-0.11015 0.0505,-0.22337 0.078,-0.33353 l 0.0933,-0.33199 c 0.0642,-0.22031 0.11933,-0.44369 0.18971,-0.66247 a 22.009773,22.009773 0 0 1 0.99905,-2.6009 19.583282,19.583282 0 0 1 1.38766,-2.44791 c 0.12699,-0.1989 0.27386,-0.38096 0.41156,-0.57373 l 0.20807,-0.2861 0.2249,-0.27386 c 0.15299,-0.18054 0.29681,-0.36872 0.45898,-0.54466 l 0.485,-0.51865 c 0.0796,-0.0903 0.16523,-0.17136 0.25244,-0.25244 l 0.25856,-0.24479 0.26009,-0.2448 c 0.0872,-0.0811 0.18206,-0.15299 0.27386,-0.22949 0.18512,-0.15299 0.36412,-0.30599 0.55384,-0.45898 l 0.58291,-0.42074 a 10.809054,10.809054 0 0 1 1.22395,-0.74355 12.354297,12.354297 0 0 1 1.31269,-0.61198 13.939319,13.939319 0 0 1 5.81991,-0.95774 c 2.00423,0.10251 4.01151,0.67929 5.65161,1.83593 0.20807,0.14076 0.40085,0.29681 0.59821,0.45899 0.19736,0.16217 0.38861,0.3274 0.56761,0.51406 a 12.130925,12.130925 0 0 1 1.05872,1.16734 c 0.33353,0.42074 0.65023,0.87054 0.9608,1.33564 0.31058,0.46511 0.61198,0.95622 0.89808,1.4611 0.59209,1.00517 1.16582,2.06849 1.81452,3.13945 a 32.268047,32.268047 0 0 0 2.15569,3.13332 c 3.14403,4.02069 7.2963,7.34373 12.04218,9.68149 a 35.910843,35.910843 0 0 0 7.5105,2.71871 34.797044,34.797044 0 0 0 8.06892,0.96539 z"
         id="path110-3"
         style="display:inline;mix-blend-mode:normal;stroke:#000000;stroke-width:0.305989px;stroke-miterlimit:10" />
      <polygon
         class="cls-13"
         points="469.22,1104.52 407.5,1076.5 345.33,1016.03 352,978.03 397,1000.76 408,963.82 453,990.34 472.01,945.13 525,1114.43 517,1115.38 "
         id="polygon112-6"
         style="display:inline;mix-blend-mode:normal;fill:#ff0000"
         transform="matrix(0.15299439,0,0,0.15299439,-229.81608,163.69476)" />
      <path
         class="cls-14"
         d="m -164.52113,331.2022 c -1.5988,-0.73285 -2.96657,-1.8803 -4.27008,-3.05989 a 2.1572209,2.1572209 0 0 1 -0.61198,-0.76497 c -0.23867,-0.61198 0.13617,-1.33258 0.71143,-1.6401 0.57526,-0.30752 1.27903,-0.27233 1.90478,-0.0841 0.62575,0.18818 1.19794,0.511 1.79615,0.76497 0.59821,0.25397 1.25456,0.44981 1.89866,0.35036 1.25303,-0.19277 2.14192,-1.64622 1.74873,-2.85029 -0.1637,-0.4957 -0.50947,-0.98834 -0.37637,-1.49322 0.16983,-0.63952 1.07096,-0.83994 1.64163,-0.51406 0.57067,0.32588 0.87666,0.98222 1.07096,1.61409 0.19431,0.63187 0.32588,1.30504 0.70531,1.84664 a 2.3377543,2.3377543 0 0 0 4.24253,-1.56054 c -0.0459,-0.47734 -0.23714,-0.94092 -0.21572,-1.41979 0.0214,-0.47887 0.38096,-1.00823 0.8583,-0.95162 0.47734,0.0566 0.8889,0.17441 1.02965,0.61197 1.17194,3.64739 2.14192,7.68491 3.30927,11.33383 0.0994,0.30599 0.53701,0.80475 0.34118,1.07096 -0.19584,0.26621 -0.87972,0.15299 -1.18571,0.15299 a 31.659129,31.659129 0 0 1 -14.64309,-3.39494"
         id="path114-4"
         style="display:inline;mix-blend-mode:normal;fill:#0000fe;stroke-width:0.152994" />
      <path
         class="cls-5"
         d="m -164.52113,331.2022 c -1.5988,-0.73285 -2.96657,-1.8803 -4.27008,-3.05989 a 2.1572209,2.1572209 0 0 1 -0.61198,-0.76497 c -0.23867,-0.61198 0.13617,-1.33258 0.71143,-1.6401 0.57526,-0.30752 1.27903,-0.27233 1.90478,-0.0841 0.62575,0.18818 1.19794,0.511 1.79615,0.76497 0.59821,0.25397 1.25456,0.44981 1.89866,0.35036 1.25303,-0.19277 2.14192,-1.64622 1.74873,-2.85029 -0.1637,-0.4957 -0.50947,-0.98834 -0.37637,-1.49322 0.16983,-0.63952 1.07096,-0.83994 1.64163,-0.51406 0.57067,0.32588 0.87666,0.98222 1.07096,1.61409 0.19431,0.63187 0.32588,1.30504 0.70531,1.84664 a 2.3377543,2.3377543 0 0 0 4.24253,-1.56054 c -0.0459,-0.47734 -0.23714,-0.94092 -0.21572,-1.41979 0.0214,-0.47887 0.38096,-1.00823 0.8583,-0.95162 0.47734,0.0566 0.8889,0.17441 1.02965,0.61197 1.17194,3.64739 2.14192,7.68491 3.30927,11.33383 0.0994,0.30599 0.53701,0.80475 0.34118,1.07096 -0.19584,0.26621 -0.87972,0.15299 -1.18571,0.15299 a 31.659129,31.659129 0 0 1 -14.64309,-3.39494"
         id="path116-7"
         style="display:inline;mix-blend-mode:normal;fill:none;stroke:#000000;stroke-width:0.458983px;stroke-miterlimit:10" />
      <path
         class="cls-14"
         d="m -161.62189,340.18297 c -0.078,1.37695 0.11322,2.99257 1.02965,3.64891 0.82158,0.58903 1.93232,0.0474 2.43414,-0.9914 0.50182,-1.03883 0.4697,-2.40966 0.11628,-3.54947 -0.18207,-0.59056 -1.865,-4.905 -2.16487,-4.85451 -0.37943,0.0643 -0.84759,2.2429 -0.95316,2.66975 a 17.006856,17.006856 0 0 0 -0.46204,3.07672 z"
         id="path118-7"
         style="display:inline;mix-blend-mode:normal;fill:#0000fe;stroke-width:0.152994" />
      <path
         class="cls-5"
         d="m -161.62189,340.18297 c -0.078,1.37695 0.11322,2.99257 1.02965,3.64891 0.82158,0.58903 1.93232,0.0474 2.43414,-0.9914 0.50182,-1.03883 0.4697,-2.40966 0.11628,-3.54947 -0.18207,-0.59056 -1.865,-4.905 -2.16487,-4.85451 -0.37943,0.0643 -0.84759,2.2429 -0.95316,2.66975 a 17.006856,17.006856 0 0 0 -0.46204,3.07672 z"
         id="path120-6"
         style="display:inline;mix-blend-mode:normal;fill:none;stroke:#000000;stroke-width:0.458983px;stroke-miterlimit:10" />
      <path
         class="cls-14"
         d="m -154.89014,337.60042 c -0.078,1.04037 0.11322,2.27197 1.02965,2.77226 0.82158,0.44675 1.93232,0.0352 2.43415,-0.75426 0.50182,-0.78945 0.46969,-1.83593 0.11627,-2.69576 -0.18206,-0.44828 -1.865,-3.72542 -2.16487,-3.68717 -0.37943,0.049 -0.84759,1.70283 -0.95315,2.02871 a 10.036432,10.036432 0 0 0 -0.46205,2.33622 z"
         id="path122-6"
         style="display:inline;mix-blend-mode:normal;fill:#0000fe;stroke-width:0.152994" />
      <path
         class="cls-5"
         d="m -154.89014,337.60042 c -0.078,1.04037 0.11322,2.27197 1.02965,2.77226 0.82158,0.44675 1.93232,0.0352 2.43415,-0.75426 0.50182,-0.78945 0.46969,-1.83593 0.11627,-2.69576 -0.18206,-0.44828 -1.865,-3.72542 -2.16487,-3.68717 -0.37943,0.049 -0.84759,1.70283 -0.95315,2.02871 a 10.036432,10.036432 0 0 0 -0.46205,2.33622 z"
         id="path124-2"
         style="display:inline;mix-blend-mode:normal;fill:none;stroke:#000000;stroke-width:0.458983px;stroke-miterlimit:10" />
      <path
         class="cls-14"
         d="m -156.40172,351.91917 c -0.14076,1.87112 0.20348,4.08495 1.85123,4.98303 1.4764,0.80322 3.47144,0.0627 4.37411,-1.354 0.90267,-1.41673 0.84453,-3.28938 0.21113,-4.84534 -0.32894,-0.80628 -3.35211,-6.69656 -3.89218,-6.62771 -0.68082,0.0872 -1.52994,3.05988 -1.71353,3.64432 a 18.129835,18.129835 0 0 0 -0.83076,4.1997 z"
         id="path126-3"
         style="display:inline;mix-blend-mode:normal;fill:#0000fe;stroke-width:0.152994" />
      <path
         class="cls-5"
         d="m -156.40172,351.91917 c -0.14076,1.87112 0.20348,4.08495 1.85123,4.98303 1.4764,0.80322 3.47144,0.0627 4.37411,-1.354 0.90267,-1.41673 0.84453,-3.28938 0.21113,-4.84534 -0.32894,-0.80628 -3.35211,-6.69656 -3.89218,-6.62771 -0.68082,0.0872 -1.52994,3.05988 -1.71353,3.64432 a 18.129835,18.129835 0 0 0 -0.83076,4.1997 z"
         id="path128-0"
         style="display:inline;mix-blend-mode:normal;fill:none;stroke:#000000;stroke-width:0.458983px;stroke-miterlimit:10" />
      <path
         class="cls-15"
         d="m -153.95228,347.15951 c 0,0 -0.0459,0.0566 -0.12852,0.16371 -0.0826,0.10709 -0.20042,0.26927 -0.33964,0.48499 a 8.6533627,8.6533627 0 0 0 -0.91797,1.95068 9.1567142,9.1567142 0 0 0 -0.34577,1.43967 8.1454213,8.1454213 0 0 0 -0.0933,1.68294 4.0130428,4.0130428 0 0 0 0.52477,1.83594 2.7753182,2.7753182 0 0 0 0.65328,0.74661 2.0746039,2.0746039 0 0 0 0.87666,0.41308 l -0.13464,-0.1025 a 2.3530537,2.3530537 0 0 1 -0.34576,-0.33353 3.2128822,3.2128822 0 0 1 -0.70225,-1.60491 6.4716627,6.4716627 0 0 1 -0.0581,-1.28974 c 0.0214,-0.48347 0.0688,-1.01895 0.14228,-1.5835 a 19.988717,19.988717 0 0 1 0.86901,-3.80344 z"
         id="path130-8"
         style="display:inline;mix-blend-mode:normal;fill:#00ffff;stroke:#00ffff;stroke-width:0.0764972px;stroke-miterlimit:10" />
      <path
         class="cls-16"
         d="m -160.07512,338.17568 -0.0612,0.0903 c -0.0367,0.0612 -0.0994,0.15299 -0.16064,0.26621 a 4.4949752,4.4949752 0 0 0 -0.42073,1.05566 4.8162634,4.8162634 0 0 0 0.0321,2.6009 4.6586792,4.6586792 0 0 0 0.39625,0.93021 c 0,0 -0.0138,-0.12545 -0.049,-0.35648 -0.0352,-0.23102 -0.0734,-0.57067 -0.0994,-1.00058 a 10.689718,10.689718 0 0 1 0.36259,-3.58619 z"
         id="path132-6"
         style="display:inline;mix-blend-mode:normal;fill:#00ffff;stroke:#00ffff;stroke-width:0.0382486px;stroke-miterlimit:10" />
      <path
         class="cls-16"
         d="m -153.66159,335.74001 c 0,0 -0.0597,0.12087 -0.14382,0.34271 a 6.5787588,6.5787588 0 0 0 -0.27845,0.95468 6.7929509,6.7929509 0 0 0 -0.14534,1.43662 1.9889271,1.9889271 0 0 0 0.18665,0.86289 0.99905337,0.99905337 0 0 0 0.69001,0.56455 l -0.0612,-0.0474 a 0.90878668,0.90878668 0 0 1 -0.153,-0.15299 1.3769495,1.3769495 0 0 1 -0.26009,-0.76498 4.1308485,4.1308485 0 0 1 0.0107,-0.61197 c 0.0153,-0.23255 0.0321,-0.48347 0.049,-0.75427 0.0321,-0.50641 0.0643,-1.10003 0.10557,-1.82981 z"
         id="path134-7"
         style="display:inline;mix-blend-mode:normal;fill:#00ffff;stroke:#00ffff;stroke-width:0.0382486px;stroke-miterlimit:10" />
    </g>
  </g>
</svg>
